<svg xmlns="http://www.w3.org/2000/svg" xmlns:xlink="http://www.w3.org/1999/xlink" xmlns:inkscape="http://www.inkscape.org/namespaces/inkscape" version="1.1" width="118" height="118" viewBox="0 0 118 118">
<path transform="matrix(1.00005,0,0,-1,59.201059,58.943)" d="M0 0H56.69362C56.69362 13.32733 51.99538 26.23343 43.4294 36.44217Z" fill="#4d4dff"/>
<path transform="matrix(1.00005,0,0,-1,59.201059,58.943)" stroke-width="1.59404" stroke-linecap="butt" stroke-miterlimit="10" stroke-linejoin="miter" fill="none" stroke="#000000" d="M0 0H56.69362C56.69362 13.32733 51.99538 26.23343 43.4294 36.44217Z"/>
<path transform="matrix(1.00005,0,0,-1,59.201059,58.943)" d="M0 0 43.4294 36.44217C34.86342 46.65092 22.96948 53.51878 9.84454 55.83286Z" fill="#4d4dff"/>
<path transform="matrix(1.00005,0,0,-1,59.201059,58.943)" stroke-width="1.59404" stroke-linecap="butt" stroke-miterlimit="10" stroke-linejoin="miter" fill="none" stroke="#000000" d="M0 0 43.4294 36.44217C34.86342 46.65092 22.96948 53.51878 9.84454 55.83286Z"/>
<path transform="matrix(1.00005,0,0,-1,59.201059,58.943)" d="M0 0 9.84454 55.83286C-3.28036 58.14694-16.80496 55.7619-28.3468 49.09824Z" fill="#4d4dff"/>
<path transform="matrix(1.00005,0,0,-1,59.201059,58.943)" stroke-width="1.59404" stroke-linecap="butt" stroke-miterlimit="10" stroke-linejoin="miter" fill="none" stroke="#000000" d="M0 0 9.84454 55.83286C-3.28036 58.14694-16.80496 55.7619-28.3468 49.09824Z"/>
<path transform="matrix(1.00005,0,0,-1,59.201059,58.943)" d="M0 0-28.3468 49.09824C-39.88864 42.43457-48.71674 31.9135-53.27483 19.39066Z" fill="#4d4dff"/>
<path transform="matrix(1.00005,0,0,-1,59.201059,58.943)" stroke-width="1.59404" stroke-linecap="butt" stroke-miterlimit="10" stroke-linejoin="miter" fill="none" stroke="#000000" d="M0 0-28.3468 49.09824C-39.88864 42.43457-48.71674 31.9135-53.27483 19.39066Z"/>
<path transform="matrix(1.00005,0,0,-1,59.201059,58.943)" d="M0 0-53.27483 19.39066C-57.83292 6.86783-57.83292-6.86783-53.27483-19.39066Z" fill="#e5e6e5"/>
<path transform="matrix(1.00005,0,0,-1,59.201059,58.943)" stroke-width="1.59404" stroke-linecap="butt" stroke-miterlimit="10" stroke-linejoin="miter" fill="none" stroke="#000000" d="M0 0-53.27483 19.39066C-57.83292 6.86783-57.83292-6.86783-53.27483-19.39066Z"/>
<path transform="matrix(1.00005,0,0,-1,59.201059,58.943)" d="M0 0-53.27483-19.39066C-48.71674-31.9135-39.88864-42.43457-28.3468-49.09824Z" fill="#e5e6e5"/>
<path transform="matrix(1.00005,0,0,-1,59.201059,58.943)" stroke-width="1.59404" stroke-linecap="butt" stroke-miterlimit="10" stroke-linejoin="miter" fill="none" stroke="#000000" d="M0 0-53.27483-19.39066C-48.71674-31.9135-39.88864-42.43457-28.3468-49.09824Z"/>
<path transform="matrix(1.00005,0,0,-1,59.201059,58.943)" d="M0 0-28.3468-49.09824C-16.80496-55.7619-3.28036-58.14694 9.84454-55.83286Z" fill="#e5e6e5"/>
<path transform="matrix(1.00005,0,0,-1,59.201059,58.943)" stroke-width="1.59404" stroke-linecap="butt" stroke-miterlimit="10" stroke-linejoin="miter" fill="none" stroke="#000000" d="M0 0-28.3468-49.09824C-16.80496-55.7619-3.28036-58.14694 9.84454-55.83286Z"/>
<path transform="matrix(1.00005,0,0,-1,59.201059,58.943)" d="M0 0 9.84454-55.83286C22.96948-53.51878 34.86342-46.65092 43.4294-36.44217Z" fill="#e5e6e5"/>
<path transform="matrix(1.00005,0,0,-1,59.201059,58.943)" stroke-width="1.59404" stroke-linecap="butt" stroke-miterlimit="10" stroke-linejoin="miter" fill="none" stroke="#000000" d="M0 0 9.84454-55.83286C22.96948-53.51878 34.86342-46.65092 43.4294-36.44217Z"/>
<path transform="matrix(1.00005,0,0,-1,59.201059,58.943)" d="M0 0 43.4294-36.44217C51.99538-26.23343 56.69362-13.32733 56.69362 0Z" fill="#e5e6e5"/>
<path transform="matrix(1.00005,0,0,-1,59.201059,58.943)" stroke-width="1.59404" stroke-linecap="butt" stroke-miterlimit="10" stroke-linejoin="miter" fill="none" stroke="#000000" d="M0 0 43.4294-36.44217C51.99538-26.23343 56.69362-13.32733 56.69362 0Z"/>
</svg>
