<svg xmlns="http://www.w3.org/2000/svg" xmlns:xlink="http://www.w3.org/1999/xlink" xmlns:inkscape="http://www.inkscape.org/namespaces/inkscape" version="1.1" width="335" height="210" viewBox="0 0 335 210">
<defs>
<path id="font_1_28" d="M.48298646 .08912659V.14511109H.45799256V.08912659C.45799256 .03112793 .43299867 .025131226 .42199708 .025131226 .3889923 .025131226 .3849945 .070129398 .3849945 .07511902V.27508546C.3849945 .31707765 .3849945 .3560791 .34899903 .39312745 .30999757 .43223573 .2599945 .4482422 .21199036 .4482422 .12998963 .4482422 .06098938 .40115357 .06098938 .335083 .06098938 .30508424 .08099365 .28808595 .10699463 .28808595 .1349945 .28808595 .15299988 .30807496 .15299988 .33407594 .15299988 .3460846 .147995 .37908937 .101989749 .38008119 .1289978 .41519166 .17799378 .426239 .20999146 .426239 .25898744 .426239 .31599427 .38710023 .31599427 .29808045V.26107789C.2649994 .25808717 .19499207 .25508119 .13198853 .22509766 .056991579 .19110108 .03199768 .13911438 .03199768 .09512329 .03199768 .014251709 .1289978-.0107421879 .19198609-.0107421879 .2579956-.0107421879 .3039856 .029251099 .32299806 .07624817 .32699586 .036132814 .35398866-.005859375 .40098573-.005859375 .42199708-.005859375 .48298646 .008132935 .48298646 .08912659M.31599427 .14013672C.31599427 .04525757 .24398804 .011245728 .19898987 .011245728 .1499939 .011245728 .10899353 .04624939 .10899353 .09625244 .10899353 .15124512 .15098572 .23425293 .31599427 .24024964V.14013672Z"/>
<path id="font_1_75" d="M.8129883 0V.0309906C.7609863 .0309906 .73599246 .0309906 .7350006 .061019899V.25221253C.7350006 .3383026 .7350006 .36932374 .70399478 .405365 .6899872 .42237855 .6569977 .4423828 .598999 .4423828 .5149994 .4423828 .47099305 .38233949 .45399476 .34429933 .43998719 .43138124 .3659973 .4423828 .32099916 .4423828 .24798584 .4423828 .20098877 .39935304 .17298889 .33729554V.4423828L.03199768 .43066407V.3996582C.101989749 .3996582 .10998535 .39266969 .10998535 .34370423V.07595825C.10998535 .0309906 .09899902 .0309906 .03199768 .0309906V0L.14498902 .0029907227 .25698854 0V.0309906C.18998719 .0309906 .1789856 .0309906 .1789856 .07595825V.25978089C.1789856 .36431886 .25 .42037965 .31399537 .42037965 .3769989 .42037965 .3880005 .36631776 .3880005 .30926515V.076034549C.3880005 .0309906 .3769989 .0309906 .30999757 .0309906V0L.4229889 .0029907227 .5349884 0V.0309906C.46798707 .0309906 .45700074 .0309906 .45700074 .076034549V.2602234C.45700074 .36431886 .5279999 .42037965 .59199526 .42037965 .6549988 .42037965 .66600039 .36631776 .66600039 .30926515V.076034549C.66600039 .0309906 .6549988 .0309906 .58799746 .0309906V0L.70098879 .0029907227 .8129883 0Z"/>
<path id="font_1_81" d="M.47099305 .21424866C.47099305 .34223939 .37098695 .4482422 .25 .4482422 .125 .4482422 .027999878 .3392334 .027999878 .21424866 .027999878 .085250858 .13198853-.0107421879 .24899292-.0107421879 .36999513-.0107421879 .47099305 .087249759 .47099305 .21424866M.3880005 .22224427C.3880005 .18624878 .3880005 .13224793 .3659973 .08824158 .34399415 .04324341 .2999878 .014251709 .25 .014251709 .20698548 .014251709 .16299439 .035247804 .13598633 .08125305 .11099243 .12524414 .11099243 .18624878 .11099243 .22224427 .11099243 .26124574 .11099243 .31523133 .1349945 .35923768 .1619873 .40522767 .20899964 .426239 .24899292 .426239 .29299928 .426239 .33599855 .40423585 .3619995 .36123658 .3880005 .3182373 .3880005 .26023866 .3880005 .22224427Z"/>
<path id="font_1_109" d="M.5349884 0V.0309906C.46499635 .0309906 .45700074 .037994386 .45700074 .08705139V.4423828L.30999757 .43066407V.3996582C.37998963 .3996582 .3880005 .39266969 .3880005 .34373475V.16601563C.3880005 .07910156 .33999635 .011245728 .2669983 .011245728 .18299866 .011245728 .1789856 .058135988 .1789856 .11009216V.4423828L.03199768 .43066407V.3996582C.10998535 .3996582 .10998535 .39666749 .10998535 .3078003V.15802002C.10998535 .080093387 .10998535-.0107421879 .2619934-.0107421879 .31799317-.0107421879 .3619995 .017242432 .3909912 .07910156V-.0107421879L.5349884 0Z"/>
<path id="font_1_77" d="M.5349884 0V.0309906C.48298646 .0309906 .45799256 .0309906 .45700074 .061019899V.25221253C.45700074 .3383026 .45700074 .36932374 .42599488 .405365 .4119873 .42237855 .3789978 .4423828 .32099916 .4423828 .24798584 .4423828 .20098877 .39935304 .17298889 .33729554V.4423828L.03199768 .43066407V.3996582C.101989749 .3996582 .10998535 .39266969 .10998535 .34370423V.07595825C.10998535 .0309906 .09899902 .0309906 .03199768 .0309906V0L.14498902 .0029907227 .25698854 0V.0309906C.18998719 .0309906 .1789856 .0309906 .1789856 .07595825V.25978089C.1789856 .36431886 .25 .42037965 .31399537 .42037965 .3769989 .42037965 .3880005 .36631776 .3880005 .30926515V.076034549C.3880005 .0309906 .3769989 .0309906 .30999757 .0309906V0L.4229889 .0029907227 .5349884 0Z"/>
<path id="font_1_105" d="M.33198548 .12385559V.18066406H.30699159V.12585449C.30699159 .052108766 .2769928 .014251709 .23999024 .014251709 .17298889 .014251709 .17298889 .10491943 .17298889 .12187195V.3996582H.31599427V.43066407H.17298889V.6142578H.147995C.14698792 .5324249 .116989139 .42565919 .018997193 .42166139V.3996582H.10398865V.12408447C.10398865 .0012512207 .19699097-.0107421879 .23298645-.0107421879 .3039856-.0107421879 .33198548 .060180665 .33198548 .12408447V.12385559Z"/>
<path id="font_1_98" d="M.3600006 .12823487C.3600006 .18122864 .32998658 .21122742 .31799317 .22323609 .2849884 .25523377 .24598694 .26322938 .20399475 .27124024 .147995 .28224183 .08099365 .29522706 .08099365 .35324098 .08099365 .38822938 .10699463 .42922975 .19299317 .42922975 .30299378 .42922975 .30799867 .3392334 .30999757 .30822755 .31098939 .2992401 .32199098 .2992401 .32199098 .2992401 .33499146 .2992401 .33499146 .30422975 .33499146 .32322694V.4242401C.33499146 .4412384 .33499146 .4482422 .32398988 .4482422 .31900025 .4482422 .31698609 .4482422 .3039856 .43623353 .30099488 .43223573 .29100038 .42323304 .2869873 .42022706 .24899292 .4482422 .20799256 .4482422 .19299317 .4482422 .070999149 .4482422 .032989503 .38124085 .032989503 .3252411 .032989503 .29023744 .04899597 .26223756 .07598877 .24023438 .10798645 .2142334 .13598633 .2082367 .20799256 .19422913 .22999573 .19021607 .31199647 .17422486 .31199647 .10221863 .31199647 .051223756 .2769928 .011245728 .19898987 .011245728 .114990238 .011245728 .07899475 .068222049 .05999756 .1532135 .056991579 .16621399 .055999757 .17021179 .04598999 .17021179 .032989503 .17021179 .032989503 .16322327 .032989503 .1452179V.013214111C.032989503-.003753662 .032989503-.0107421879 .04399109-.0107421879 .04899597-.0107421879 .049987794-.009750366 .068984989 .009246826 .070999149 .011245728 .070999149 .013214111 .08898926 .032226564 .1329956-.009750366 .17799378-.0107421879 .19898987-.0107421879 .31399537-.0107421879 .3600006 .05621338 .3600006 .1282196V.12823487Z"/>
<path id="font_1_72" d="M.25498963 0V.0309906C.18798828 .0309906 .1769867 .0309906 .1769867 .07601929V.69433596L.032989503 .6826172V.6516113C.102996829 .6516113 .11099243 .64460757 .11099243 .5956421V.07595825C.11099243 .0309906 .099990848 .0309906 .032989503 .0309906V0L.14399719 .0029907227 .25498963 0Z"/>
<path id="font_1_66" d="M.24699402 0V.0309906C.18099976 .0309906 .1769867 .035995485 .1769867 .075042728V.4423828L.036987306 .43066407V.3996582C.101989749 .3996582 .11099243 .3936615 .11099243 .3447113V.07595825C.11099243 .0309906 .099990848 .0309906 .032989503 .0309906V0L.14299011 .0029907227C.17799378 .0029907227 .21299744 .0009918213 .24699402 0M.19198609 .603775C.19198609 .6307678 .16899109 .6567688 .13899231 .6567688 .10499573 .6567688 .084991458 .6287689 .084991458 .603775 .084991458 .57676699 .10798645 .55078127 .13798523 .55078127 .17199707 .55078127 .19198609 .5787811 .19198609 .603775Z"/>
<path id="font_2_11" d="M.68699648 .32714845C.70199587 .32714845 .72099307 .32714845 .72099307 .34713746 .72099307 .36714173 .70199587 .36714173 .6879883 .36714173H.08898926C.07499695 .36714173 .055999757 .36714173 .055999757 .34713746 .055999757 .32714845 .07499695 .32714845 .08999634 .32714845H.68699648M.6879883 .13284302C.70199587 .13284302 .72099307 .13284302 .72099307 .15284729 .72099307 .17285156 .70199587 .17285156 .68699648 .17285156H.08999634C.07499695 .17285156 .055999757 .17285156 .055999757 .15284729 .055999757 .13284302 .07499695 .13284302 .08898926 .13284302H.6879883Z"/>
<path id="font_3_2" d="M.33399964 .30233766C.33999635 .32835389 .36299134 .42037965 .43299867 .42037965 .43798829 .42037965 .46199037 .42037965 .48298646 .40734864 .45498658 .402359 .43499757 .37734986 .43499757 .35334779 .43499757 .33735658 .44599916 .31835938 .47299195 .31835938 .49499513 .31835938 .5269928 .3363495 .5269928 .37635804 .5269928 .42837525 .46798707 .4423828 .43399049 .4423828 .37599183 .4423828 .34098817 .38935853 .32899476 .36634828 .3039856 .43237306 .25 .4423828 .22099304 .4423828 .116989139 .4423828 .05999756 .3133545 .05999756 .28834535 .05999756 .27833558 .069992069 .27833558 .07199097 .27833558 .07998657 .27833558 .08299255 .28033448 .084991458 .28933717 .11898804 .39535523 .18499756 .42037965 .21899414 .42037965 .23799134 .42037965 .272995 .4113617 .272995 .35334779 .272995 .32235719 .2559967 .25532533 .21899414 .11528015 .20298767 .053268434 .16799927 .011245728 .12399292 .011245728 .117996219 .011245728 .09498596 .011245728 .07398987 .024276734 .09899902 .029266358 .12098694 .05027771 .12098694 .07827759 .12098694 .105270389 .09899902 .11328125 .083999637 .11328125 .053985597 .11328125 .0289917 .08728027 .0289917 .055267335 .0289917 .009246826 .07899475-.0107421879 .12298584-.0107421879 .18899536-.0107421879 .22499085 .059280397 .22799683 .0652771 .23999024 .028274537 .27598573-.0107421879 .33599855-.0107421879 .43899537-.0107421879 .49598695 .118270877 .49598695 .14328003 .49598695 .1532898 .4869995 .1532898 .48399354 .1532898 .47499085 .1532898 .47299195 .14929199 .47099305 .14228821 .43798829 .03527832 .36999513 .011245728 .33799745 .011245728 .29899598 .011245728 .2829895 .043273927 .2829895 .07727051 .2829895 .09927368 .2889862 .121276859 .2999878 .16529846L.33399964 .30233766Z"/>
<path id="font_1_43" d="M.4149933 .119140628C.4149933 .12911988 .40499879 .12911988 .4019928 .12911988 .3929901 .12911988 .3909912 .12512207 .3889923 .119140628 .3600006 .026229859 .29499818 .014251709 .2579956 .014251709 .20498657 .014251709 .116989139 .0572052 .116989139 .21801758 .116989139 .38093568 .19898987 .42323304 .2519989 .42323304 .26098634 .42323304 .32398988 .42222596 .35899354 .38594056 .31799317 .38293458 .31199647 .3529358 .31199647 .3399353 .31199647 .31393434 .32998658 .2939453 .35798646 .2939453 .38398744 .2939453 .4039917 .3109436 .4039917 .34094239 .4039917 .40911866 .32798768 .4482422 .25099183 .4482422 .12599182 .4482422 .033996583 .3399353 .033996583 .21601868 .033996583 .08816528 .1329956-.0107421879 .24899292-.0107421879 .3829956-.0107421879 .4149933 .10914612 .4149933 .119140628Z"/>
<path id="font_1_50" d="M.4149933 .11933899C.4149933 .12934876 .40699769 .13134766 .4019928 .13134766 .3929901 .13134766 .3909912 .12535095 .3889923 .11734009 .35398866 .014251709 .2639923 .014251709 .2539978 .014251709 .20399475 .014251709 .1639862 .044281007 .14099121 .08131409 .11099243 .12934876 .11099243 .19540406 .11099243 .23144531H.3899994C.4119873 .23144531 .4149933 .23144531 .4149933 .2524414 .4149933 .35131837 .36099244 .4482422 .23599243 .4482422 .11999512 .4482422 .027999878 .34532167 .027999878 .22042847 .027999878 .08631897 .1329956-.0107421879 .24798584-.0107421879 .36999513-.0107421879 .4149933 .10032654 .4149933 .11933899M.34899903 .2524414H.11199951C.117996219 .40126039 .20199585 .426239 .23599243 .426239 .33898927 .426239 .34899903 .2913971 .34899903 .2524414Z"/>
<path id="font_1_96" d="M.3639984 .38137818C.3639984 .41337586 .33299256 .4423828 .2899933 .4423828 .21699524 .4423828 .18099976 .37538148 .16699219 .3323822V.4423828L.027999878 .43066407V.3996582C.09799194 .3996582 .10598755 .39266969 .10598755 .34370423V.07595825C.10598755 .0309906 .09498596 .0309906 .027999878 .0309906V0L.14199829 .0029907227C.18199158 .0029907227 .22898865 .0029907227 .2689972 0V.0309906H.24798584C.17399597 .0309906 .17199707 .04197693 .17199707 .07795715V.23181153C.17199707 .33137513 .21398926 .42037965 .2899933 .42037965 .29699708 .42037965 .29899598 .42037965 .30099488 .41937257 .2979889 .41838075 .27799989 .40637208 .27799989 .3803711 .27799989 .35237123 .29899598 .33737184 .32099916 .33737184 .33898927 .33737184 .3639984 .3493805 .3639984 .38137818Z"/>
<path id="font_2_4" d="M.45999146 .31976319C.45999146 .39982606 .45498658 .47988893 .41999818 .5539398 .37399293 .65000918 .2919922 .6660156 .25 .6660156 .18998719 .6660156 .116989139 .64001467 .07598877 .54693606 .04399109 .47789 .038986207 .39982606 .038986207 .31976319 .038986207 .24472046 .042999269 .15464783 .083999637 .07859802 .1269989-.0024719239 .19999695-.022460938 .24899292-.022460938 .30299378-.022460938 .3789978-.0014648438 .4229889 .09359741 .45498658 .16265869 .45999146 .2407074 .45999146 .31976319M.24899292-.00047302247C.20999146-.00047302247 .15098572 .024551392 .1329956 .12062073 .12199402 .18066406 .12199402 .2727356 .12199402 .3317871 .12199402 .39582826 .12199402 .46188355 .12998963 .5159149 .14898682 .63500979 .22399903 .64401248 .24899292 .64401248 .28199769 .64401248 .34799195 .6259918 .36698915 .52693179 .3769989 .47088624 .3769989 .39482118 .3769989 .3317871 .3769989 .25672914 .3769989 .18867493 .3659973 .12461853 .35099793 .029556275 .2939911-.00047302247 .24899292-.00047302247Z"/>
<path id="font_3_1" d="M.19198609 .052993776C.19198609 .08198547 .16799927 .10598755 .13899231 .10598755 .10998535 .10598755 .085998538 .08198547 .085998538 .052993776 .085998538 .023986817 .10998535 0 .13899231 0 .16799927 0 .19198609 .023986817 .19198609 .052993776Z"/>
<path id="font_2_6" d="M.1269989 .07699585 .23298645 .18003845C.3889923 .31811524 .44898988 .3721466 .44898988 .47216798 .44898988 .5860901 .35899354 .6660156 .23699951 .6660156 .12399292 .6660156 .049987794 .57411196 .049987794 .48516847 .049987794 .4291687 .099990848 .4291687 .102996829 .4291687 .11999512 .4291687 .15499878 .44117738 .15499878 .48217774 .15499878 .5081787 .13699341 .5341797 .101989749 .5341797 .09399414 .5341797 .09199524 .5341797 .08898926 .5331726 .11199951 .59806826 .1659851 .63500979 .22399903 .63500979 .31498719 .63500979 .35798646 .5541382 .35798646 .47216798 .35798646 .39215089 .30799867 .31311036 .25299073 .25108338L.06098938 .036987306C.049987794 .025985718 .049987794 .023986817 .049987794 0H.42099L.44898988 .17404175H.42399598C.4189911 .14402771 .4119873 .1000061 .4019928 .084991458 .394989 .07699585 .32899476 .07699585 .30699159 .07699585H.1269989Z"/>
<path id="font_1_47" d="M.5269928 0V.0309906C.45700074 .0309906 .44898988 .038009645 .44898988 .0871582V.69433596L.30499269 .6826172V.6516113C.375 .6516113 .3829956 .64463809 .3829956 .59580996V.38035584C.35398866 .41636659 .31098939 .4423828 .25698854 .4423828 .13899231 .4423828 .033996583 .3443451 .033996583 .21531677 .033996583 .088272098 .13198853-.0107421879 .24598694-.0107421879 .30999757-.0107421879 .35499574 .023254395 .37998963 .055267335V-.0107421879L.5269928 0M.37998963 .117996219C.37998963 .099990848 .37998963 .09799194 .36898805 .08099365 .33898927 .033218385 .2939911 .011245728 .25099183 .011245728 .20599365 .011245728 .16999817 .037216188 .1459961 .075164798 .11999512 .1161499 .116989139 .17320252 .116989139 .21421814 .116989139 .25125123 .11898804 .31129457 .147995 .35632325 .16899109 .38734437 .20698548 .42037965 .26098634 .42037965 .29599 .42037965 .33799745 .405365 .36898805 .3603363 .37998963 .34332276 .37998963 .34132386 .37998963 .32330323V.117996219Z"/>
<path id="font_2_10" d="M.16299439 .4569702C.116989139 .486969 .11299133 .52098086 .11299133 .5379791 .11299133 .598999 .17799378 .64100649 .24899292 .64100649 .32199098 .64100649 .38598634 .58898928 .38598634 .51698306 .38598634 .45996095 .34700013 .4119568 .2869873 .37695313L.16299439 .4569702M.30899049 .36193849C.3809967 .3989563 .42999269 .45095826 .42999269 .51698306 .42999269 .6090088 .34098817 .6660156 .25 .6660156 .1499939 .6660156 .068984989 .59199526 .068984989 .49897767 .068984989 .4809723 .070999149 .43595887 .11299133 .38894654 .12399292 .37695313 .16099549 .35194398 .18598938 .33494569 .12799073 .30592347 .041992189 .24984741 .041992189 .15072632 .041992189 .04458618 .14399719-.022460938 .24899292-.022460938 .3619995-.022460938 .45700074 .06060791 .45700074 .16773987 .45700074 .20379639 .44599916 .24885559 .4079895 .2909088 .3889923 .31193543 .37298585 .3219452 .30899049 .36193849M.20899964 .3199463 .33198548 .24183655C.3600006 .2228241 .40699769 .19277954 .40699769 .13169861 .40699769 .05760193 .33198548 .0055389406 .25 .0055389406 .1639862 .0055389406 .09199524 .067611698 .09199524 .15072632 .09199524 .20880127 .12399292 .27288819 .20899964 .3199463Z"/>
<path id="font_2_9" d="M.13198853 .327713V.35173036C.13198853 .6047821 .2559967 .64100649 .30699159 .64100649 .33099366 .64100649 .37298585 .634964 .394989 .6007538 .37998963 .6007538 .33999635 .6007538 .33999635 .5557556 .33999635 .524765 .3639984 .5097656 .38598634 .5097656 .4019928 .5097656 .43199159 .51875308 .43199159 .5577545 .43199159 .6178589 .3880005 .6660156 .30499269 .6660156 .1769867 .6660156 .041992189 .5367584 .041992189 .31570436 .041992189 .048553468 .1579895-.022460938 .25099183-.022460938 .3619995-.022460938 .45700074 .07156372 .45700074 .2036438 .45700074 .33070375 .36799623 .4267578 .25698854 .4267578 .18899536 .4267578 .1519928 .37573243 .13198853 .327713M.25099183 .0055389406C.18798828 .0055389406 .1579895 .06556702 .1519928 .080566409 .13398743 .127594 .13398743 .2076416 .13398743 .22564698 .13398743 .30369569 .1659851 .40374757 .2559967 .40374757 .27198792 .40374757 .31799317 .40374757 .34899903 .34172059 .36698915 .30470277 .36698915 .2536621 .36698915 .20463562 .36698915 .15661621 .36698915 .10658264 .34999085 .0705719 .31999208 .010528564 .27398683 .0055389406 .25099183 .0055389406Z"/>
<path id="font_2_5" d="M.2939911 .64004519C.2939911 .66400149 .2939911 .6660156 .2709961 .6660156 .20899964 .60227969 .12098694 .60227969 .08898926 .60227969V.57128909C.10899353 .57128909 .16799927 .57128909 .21998596 .5972748V.07902527C.21998596 .042999269 .21699524 .0309906 .1269989 .0309906H.09498596V0C.12998963 .0029907227 .21699524 .0029907227 .25698854 .0029907227 .29699708 .0029907227 .38398744 .0029907227 .4189911 0V.0309906H.3869934C.29699708 .0309906 .2939911 .041992189 .2939911 .07902527V.64004519Z"/>
<path id="font_2_1" d="M.33099366-.2400055C.33099366-.23701477 .33099366-.23500061 .31399537-.21800232 .18899536-.0920105 .15699768 .09700012 .15699768 .25 .15699768 .42399598 .19499207 .59799197 .31799317 .72299197 .33099366 .73498538 .33099366 .7369995 .33099366 .73999026 .33099366 .746994 .32699586 .75 .32099916 .75 .31098939 .75 .22099304 .6819916 .1619873 .5549927 .11099243 .44499208 .09899902 .33399964 .09899902 .25 .09899902 .17199707 .10998535 .050994874 .16499329-.06201172 .22499085-.18501282 .31098939-.25 .32099916-.25 .32699586-.25 .33099366-.24700928 .33099366-.2400055Z"/>
<path id="font_2_2" d="M.2889862 .25C.2889862 .32798768 .27799989 .44898988 .22299195 .56199648 .16299439 .68499758 .07699585 .75 .066986087 .75 .06098938 .75 .056991579 .74598696 .056991579 .73999026 .056991579 .7369995 .056991579 .73498538 .07598877 .71699526 .17399597 .6179962 .23098755 .45899964 .23098755 .25 .23098755 .07899475 .19400025-.09700012 .069992069-.2230072 .056991579-.23500061 .056991579-.23701477 .056991579-.2400055 .056991579-.2460022 .06098938-.25 .066986087-.25 .07699585-.25 .16699219-.18200684 .22599793-.055007936 .2769928 .054992677 .2889862 .16600037 .2889862 .25Z"/>
<path id="font_2_3" d="M.40899659 .23046875H.6879883C.70199587 .23046875 .72099307 .23046875 .72099307 .25045777 .72099307 .27046205 .70199587 .27046205 .6879883 .27046205H.40899659V.5500183C.40899659 .56399539 .40899659 .5830078 .3889923 .5830078 .36898805 .5830078 .36898805 .56399539 .36898805 .5500183V.27046205H.08898926C.07499695 .27046205 .055999757 .27046205 .055999757 .25045777 .055999757 .23046875 .07499695 .23046875 .08898926 .23046875H.36898805V-.05000305C.36898805-.06401062 .36898805-.08300781 .3889923-.08300781 .40899659-.08300781 .40899659-.06401062 .40899659-.05000305V.23046875Z"/>
<path id="font_2_7" d="M.2939911 .16503906V.07800293C.2939911 .041992189 .2919922 .0309906 .21798706 .0309906H.19699097V0C.23799134 .0029907227 .2899933 .0029907227 .33198548 .0029907227 .37399293 .0029907227 .4269867 .0029907227 .46798707 0V.0309906H.44699098C.37298585 .0309906 .37098695 .041992189 .37098695 .07800293V.16503906H.47099305V.19602967H.37098695V.65075686C.37098695 .67074587 .37098695 .6767578 .35499574 .6767578 .34599305 .6767578 .34298707 .6767578 .33499146 .66474917L.027999878 .19602967V.16503906H.2939911M.2999878 .19602967H.055999757L.2999878 .5688019V.19602967Z"/>
<path id="font_2_8" d="M.44898988 .20022583C.44898988 .3193512 .36698915 .41944886 .25898744 .41944886 .21099854 .41944886 .16799927 .40345765 .13198853 .36842347V.5637665C.1519928 .5577698 .18499756 .55078127 .21699524 .55078127 .33999635 .55078127 .4099884 .6417694 .4099884 .6547699 .4099884 .6607666 .40699769 .6657715 .3999939 .6657715 .39898683 .6657715 .39698792 .6657715 .3919983 .66278079 .37199403 .6537781 .32299806 .6337738 .2559967 .6337738 .21598816 .6337738 .16999817 .6407776 .12298584 .6617737 .114990238 .66477969 .11299133 .66477969 .11099243 .66477969 .100997928 .66477969 .100997928 .6567688 .100997928 .6407776V.34439088C.100997928 .32637025 .100997928 .31835938 .114990238 .31835938 .12199402 .31835938 .12399292 .32136537 .12799073 .32736207 .13899231 .3433838 .17599488 .39746095 .25698854 .39746095 .30899049 .39746095 .33399964 .35139466 .34199525 .33337403 .35798646 .29632569 .3600006 .25727845 .3600006 .20722962 .3600006 .17222595 .3600006 .11222839 .33599855 .07035828 .31199647 .031463624 .2749939 .0055389406 .22898865 .0055389406 .1559906 .0055389406 .09899902 .058380128 .08198547 .11723328 .084991458 .1162262 .08799744 .115234378 .09899902 .115234378 .13198853 .115234378 .14898682 .14022827 .14898682 .16423035 .14898682 .18823242 .13198853 .21322632 .09899902 .21322632 .084991458 .21322632 .049987794 .20622254 .049987794 .16023255 .049987794 .07434082 .11898804-.022460938 .23098755-.022460938 .34700013-.022460938 .44898988 .073349 .44898988 .20022583Z"/>
</defs>
<path transform="matrix(1.00003,0,0,-1.00005,164.53209,61.72908)" stroke-width="1.59404" stroke-linecap="butt" stroke-miterlimit="10" stroke-linejoin="miter" fill="none" stroke="#000000" d="M-28.3468 56.69362V0H-56.69362V56.69362"/>
<path transform="matrix(1.00003,0,0,-1.00005,164.53209,61.72908)" stroke-width="1.59404" stroke-linecap="butt" stroke-miterlimit="10" stroke-linejoin="miter" fill="none" stroke="#000000" d="M28.3468 56.69362V0H56.69362V56.69362"/>
<path transform="matrix(1.00003,0,0,-1.00005,164.53209,61.72908)" stroke-width="1.59404" stroke-linecap="butt" stroke-miterlimit="10" stroke-linejoin="miter" fill="none" stroke="#000000" d="M-14.17339-22.67752V-85.04042H14.17339V-22.67752"/>
<path transform="matrix(1.00003,0,0,-1.00005,164.53209,61.72908)" stroke-width=".3985" stroke-linecap="butt" stroke-miterlimit="10" stroke-linejoin="miter" fill="none" stroke="#000000" d="M-42.5202 53.85875V59.52846H-7.08669V-13.71512"/>
<path transform="matrix(0,1.00005,1.00003,0,157.44519,75.444889)" stroke-width=".31879" stroke-linecap="round" stroke-linejoin="round" fill="none" stroke="#000000" d="M-1.19551 1.59401C-1.09587 .99626 0 .09961 .29886 0 0-.09961-1.09587-.99626-1.19551-1.59401"/>
<path transform="matrix(1.00003,0,0,-1.00005,164.53209,61.72908)" stroke-width=".3985" stroke-linecap="butt" stroke-miterlimit="10" stroke-linejoin="miter" fill="none" stroke="#000000" d="M42.5202 53.85875V59.52846H7.08669V-13.71512"/>
<path transform="matrix(0,1.00005,1.00003,0,171.61899,75.444889)" stroke-width=".31879" stroke-linecap="round" stroke-linejoin="round" fill="none" stroke="#000000" d="M-1.19551 1.59401C-1.09587 .99626 0 .09961 .29886 0 0-.09961-1.09587-.99626-1.19551-1.59401"/>
<use data-text="a" xlink:href="#font_1_28" transform="matrix(10.909428,0,0,-10.909644,1.7752075,22.932145)"/>
<use data-text="m" xlink:href="#font_1_75" transform="matrix(10.909428,0,0,-10.909644,7.229904,22.932145)"/>
<use data-text="o" xlink:href="#font_1_81" transform="matrix(10.909428,0,0,-10.909644,16.31746,22.932145)"/>
<use data-text="u" xlink:href="#font_1_109" transform="matrix(10.909428,0,0,-10.909644,21.772171,22.932145)"/>
<use data-text="n" xlink:href="#font_1_77" transform="matrix(10.909428,0,0,-10.909644,27.837815,22.932145)"/>
<use data-text="t" xlink:href="#font_1_105" transform="matrix(10.909428,0,0,-10.909644,33.597993,22.932145)"/>
<use data-text="s" xlink:href="#font_1_98" transform="matrix(10.909428,0,0,-10.909644,41.4637,22.932145)"/>
<use data-text="o" xlink:href="#font_1_81" transform="matrix(10.909428,0,0,-10.909644,45.76201,22.932145)"/>
<use data-text="l" xlink:href="#font_1_72" transform="matrix(10.909428,0,0,-10.909644,51.21672,22.932145)"/>
<use data-text="u" xlink:href="#font_1_109" transform="matrix(10.909428,0,0,-10.909644,54.249544,22.932145)"/>
<use data-text="t" xlink:href="#font_1_105" transform="matrix(10.909428,0,0,-10.909644,60.315187,22.932145)"/>
<use data-text="i" xlink:href="#font_1_66" transform="matrix(10.909428,0,0,-10.909644,64.558948,22.932145)"/>
<use data-text="o" xlink:href="#font_1_81" transform="matrix(10.909428,0,0,-10.909644,67.59177,22.932145)"/>
<use data-text="n" xlink:href="#font_1_77" transform="matrix(10.909428,0,0,-10.909644,73.04648,22.932145)"/>
<use data-text="=" xlink:href="#font_2_11" transform="matrix(10.909428,0,0,-10.909644,82.75563,22.932145)"/>
<use data-text="x" xlink:href="#font_3_2" transform="matrix(10.909428,0,0,-10.909644,94.27098,22.932145)"/>
<use data-text="c" xlink:href="#font_1_43" transform="matrix(10.909428,0,0,-10.909644,1.5771942,36.90484)"/>
<use data-text="o" xlink:href="#font_1_81" transform="matrix(10.909428,0,0,-10.909644,6.4209749,36.90484)"/>
<use data-text="n" xlink:href="#font_1_77" transform="matrix(10.909428,0,0,-10.909644,11.875687,36.90484)"/>
<use data-text="c" xlink:href="#font_1_43" transform="matrix(10.909428,0,0,-10.909644,17.94133,36.90484)"/>
<use data-text="e" xlink:href="#font_1_50" transform="matrix(10.909428,0,0,-10.909644,22.785126,36.90484)"/>
<use data-text="n" xlink:href="#font_1_77" transform="matrix(10.909428,0,0,-10.909644,27.628907,36.90484)"/>
<use data-text="t" xlink:href="#font_1_105" transform="matrix(10.909428,0,0,-10.909644,33.389085,36.90484)"/>
<use data-text="r" xlink:href="#font_1_96" transform="matrix(10.909428,0,0,-10.909644,37.63286,36.90484)"/>
<use data-text="a" xlink:href="#font_1_28" transform="matrix(10.909428,0,0,-10.909644,41.909349,36.90484)"/>
<use data-text="t" xlink:href="#font_1_105" transform="matrix(10.909428,0,0,-10.909644,47.36406,36.90484)"/>
<use data-text="i" xlink:href="#font_1_66" transform="matrix(10.909428,0,0,-10.909644,51.60782,36.90484)"/>
<use data-text="o" xlink:href="#font_1_81" transform="matrix(10.909428,0,0,-10.909644,54.64064,36.90484)"/>
<use data-text="n" xlink:href="#font_1_77" transform="matrix(10.909428,0,0,-10.909644,60.095354,36.90484)"/>
<use data-text="=" xlink:href="#font_2_11" transform="matrix(10.909428,0,0,-10.909644,69.79324,36.90484)"/>
<use data-text="0" xlink:href="#font_2_4" transform="matrix(10.909428,0,0,-10.909644,81.29178,36.90484)"/>
<use data-text="." xlink:href="#font_3_1" transform="matrix(10.909428,0,0,-10.909644,86.76375,36.90484)"/>
<use data-text="2" xlink:href="#font_2_6" transform="matrix(10.909428,0,0,-10.909644,89.79385,36.90484)"/>
<use data-text="0" xlink:href="#font_2_4" transform="matrix(10.909428,0,0,-10.909644,95.248569,36.90484)"/>
<use data-text="a" xlink:href="#font_1_28" transform="matrix(10.909428,0,0,-10.909644,1.2041779,51.28056)"/>
<use data-text="m" xlink:href="#font_1_75" transform="matrix(10.909428,0,0,-10.909644,6.6588747,51.28056)"/>
<use data-text="o" xlink:href="#font_1_81" transform="matrix(10.909428,0,0,-10.909644,15.746429,51.28056)"/>
<use data-text="u" xlink:href="#font_1_109" transform="matrix(10.909428,0,0,-10.909644,21.201142,51.28056)"/>
<use data-text="n" xlink:href="#font_1_77" transform="matrix(10.909428,0,0,-10.909644,27.266785,51.28056)"/>
<use data-text="t" xlink:href="#font_1_105" transform="matrix(10.909428,0,0,-10.909644,33.026964,51.28056)"/>
<use data-text="a" xlink:href="#font_1_28" transform="matrix(10.909428,0,0,-10.909644,40.89267,51.28056)"/>
<use data-text="c" xlink:href="#font_1_43" transform="matrix(10.909428,0,0,-10.909644,46.34738,51.28056)"/>
<use data-text="i" xlink:href="#font_1_66" transform="matrix(10.909428,0,0,-10.909644,51.191164,51.28056)"/>
<use data-text="d" xlink:href="#font_1_47" transform="matrix(10.909428,0,0,-10.909644,54.223985,51.28056)"/>
<use data-text="=" xlink:href="#font_2_11" transform="matrix(10.909428,0,0,-10.909644,63.93306,51.28056)"/>
<use data-text="0" xlink:href="#font_2_4" transform="matrix(10.909428,0,0,-10.909644,75.431598,51.28056)"/>
<use data-text="." xlink:href="#font_3_1" transform="matrix(10.909428,0,0,-10.909644,80.90358,51.28056)"/>
<use data-text="2" xlink:href="#font_2_6" transform="matrix(10.909428,0,0,-10.909644,83.93367,51.28056)"/>
<use data-text="0" xlink:href="#font_2_4" transform="matrix(10.909428,0,0,-10.909644,89.3884,51.28056)"/>
<use data-text="x" xlink:href="#font_3_2" transform="matrix(10.909428,0,0,-10.909644,94.84299,51.28056)"/>
<use data-text="a" xlink:href="#font_1_28" transform="matrix(10.909428,0,0,-10.909644,226.21895,22.932145)"/>
<use data-text="m" xlink:href="#font_1_75" transform="matrix(10.909428,0,0,-10.909644,231.67365,22.932145)"/>
<use data-text="o" xlink:href="#font_1_81" transform="matrix(10.909428,0,0,-10.909644,240.7612,22.932145)"/>
<use data-text="u" xlink:href="#font_1_109" transform="matrix(10.909428,0,0,-10.909644,246.21591,22.932145)"/>
<use data-text="n" xlink:href="#font_1_77" transform="matrix(10.909428,0,0,-10.909644,252.28156,22.932145)"/>
<use data-text="t" xlink:href="#font_1_105" transform="matrix(10.909428,0,0,-10.909644,258.04173,22.932145)"/>
<use data-text="s" xlink:href="#font_1_98" transform="matrix(10.909428,0,0,-10.909644,265.90745,22.932145)"/>
<use data-text="o" xlink:href="#font_1_81" transform="matrix(10.909428,0,0,-10.909644,270.20576,22.932145)"/>
<use data-text="l" xlink:href="#font_1_72" transform="matrix(10.909428,0,0,-10.909644,275.66047,22.932145)"/>
<use data-text="u" xlink:href="#font_1_109" transform="matrix(10.909428,0,0,-10.909644,278.69328,22.932145)"/>
<use data-text="t" xlink:href="#font_1_105" transform="matrix(10.909428,0,0,-10.909644,284.7589,22.932145)"/>
<use data-text="i" xlink:href="#font_1_66" transform="matrix(10.909428,0,0,-10.909644,289.0027,22.932145)"/>
<use data-text="o" xlink:href="#font_1_81" transform="matrix(10.909428,0,0,-10.909644,292.0355,22.932145)"/>
<use data-text="n" xlink:href="#font_1_77" transform="matrix(10.909428,0,0,-10.909644,297.4902,22.932145)"/>
<use data-text="=" xlink:href="#font_2_11" transform="matrix(10.909428,0,0,-10.909644,307.19938,22.932145)"/>
<use data-text="8" xlink:href="#font_2_10" transform="matrix(10.909428,0,0,-10.909644,318.6979,22.932145)"/>
<use data-text="0" xlink:href="#font_2_4" transform="matrix(10.909428,0,0,-10.909644,324.15263,22.932145)"/>
<use data-text="c" xlink:href="#font_1_43" transform="matrix(10.909428,0,0,-10.909644,228.35901,36.90484)"/>
<use data-text="o" xlink:href="#font_1_81" transform="matrix(10.909428,0,0,-10.909644,233.20279,36.90484)"/>
<use data-text="n" xlink:href="#font_1_77" transform="matrix(10.909428,0,0,-10.909644,238.6575,36.90484)"/>
<use data-text="c" xlink:href="#font_1_43" transform="matrix(10.909428,0,0,-10.909644,244.72315,36.90484)"/>
<use data-text="e" xlink:href="#font_1_50" transform="matrix(10.909428,0,0,-10.909644,249.56694,36.90484)"/>
<use data-text="n" xlink:href="#font_1_77" transform="matrix(10.909428,0,0,-10.909644,254.41072,36.90484)"/>
<use data-text="t" xlink:href="#font_1_105" transform="matrix(10.909428,0,0,-10.909644,260.1709,36.90484)"/>
<use data-text="r" xlink:href="#font_1_96" transform="matrix(10.909428,0,0,-10.909644,264.41468,36.90484)"/>
<use data-text="a" xlink:href="#font_1_28" transform="matrix(10.909428,0,0,-10.909644,268.69117,36.90484)"/>
<use data-text="t" xlink:href="#font_1_105" transform="matrix(10.909428,0,0,-10.909644,274.14588,36.90484)"/>
<use data-text="i" xlink:href="#font_1_66" transform="matrix(10.909428,0,0,-10.909644,278.38966,36.90484)"/>
<use data-text="o" xlink:href="#font_1_81" transform="matrix(10.909428,0,0,-10.909644,281.42247,36.90484)"/>
<use data-text="n" xlink:href="#font_1_77" transform="matrix(10.909428,0,0,-10.909644,286.87718,36.90484)"/>
<use data-text="=" xlink:href="#font_2_11" transform="matrix(10.909428,0,0,-10.909644,296.57508,36.90484)"/>
<use data-text="0" xlink:href="#font_2_4" transform="matrix(10.909428,0,0,-10.909644,308.0736,36.90484)"/>
<use data-text="." xlink:href="#font_3_1" transform="matrix(10.909428,0,0,-10.909644,313.54557,36.90484)"/>
<use data-text="6" xlink:href="#font_2_9" transform="matrix(10.909428,0,0,-10.909644,316.57569,36.90484)"/>
<use data-text="1" xlink:href="#font_2_5" transform="matrix(10.909428,0,0,-10.909644,322.0304,36.90484)"/>
<use data-text="a" xlink:href="#font_1_28" transform="matrix(10.909428,0,0,-10.909644,221.4048,50.28251)"/>
<use data-text="m" xlink:href="#font_1_75" transform="matrix(10.909428,0,0,-10.909644,226.8595,50.28251)"/>
<use data-text="o" xlink:href="#font_1_81" transform="matrix(10.909428,0,0,-10.909644,235.94705,50.28251)"/>
<use data-text="u" xlink:href="#font_1_109" transform="matrix(10.909428,0,0,-10.909644,241.40177,50.28251)"/>
<use data-text="n" xlink:href="#font_1_77" transform="matrix(10.909428,0,0,-10.909644,247.4674,50.28251)"/>
<use data-text="t" xlink:href="#font_1_105" transform="matrix(10.909428,0,0,-10.909644,253.22759,50.28251)"/>
<use data-text="a" xlink:href="#font_1_28" transform="matrix(10.909428,0,0,-10.909644,261.0933,50.28251)"/>
<use data-text="c" xlink:href="#font_1_43" transform="matrix(10.909428,0,0,-10.909644,266.548,50.28251)"/>
<use data-text="i" xlink:href="#font_1_66" transform="matrix(10.909428,0,0,-10.909644,271.39179,50.28251)"/>
<use data-text="d" xlink:href="#font_1_47" transform="matrix(10.909428,0,0,-10.909644,274.4246,50.28251)"/>
<use data-text="=" xlink:href="#font_2_11" transform="matrix(10.909428,0,0,-10.909644,284.13368,50.28251)"/>
<use data-text="0" xlink:href="#font_2_4" transform="matrix(10.909428,0,0,-10.909644,295.6322,50.28251)"/>
<use data-text="." xlink:href="#font_3_1" transform="matrix(10.909428,0,0,-10.909644,301.1042,50.28251)"/>
<use data-text="6" xlink:href="#font_2_9" transform="matrix(10.909428,0,0,-10.909644,304.13429,50.28251)"/>
<use data-text="1" xlink:href="#font_2_5" transform="matrix(10.909428,0,0,-10.909644,309.58903,50.28251)"/>
<use data-text="(" xlink:href="#font_2_1" transform="matrix(10.909428,0,0,-10.909644,315.04374,50.28251)"/>
<use data-text="8" xlink:href="#font_2_10" transform="matrix(10.909428,0,0,-10.909644,319.27659,50.28251)"/>
<use data-text="0" xlink:href="#font_2_4" transform="matrix(10.909428,0,0,-10.909644,324.73133,50.28251)"/>
<use data-text=")" xlink:href="#font_2_2" transform="matrix(10.909428,0,0,-10.909644,330.18605,50.28251)"/>
<use data-text="a" xlink:href="#font_1_28" transform="matrix(10.909428,0,0,-10.909644,103.04424,164.2792)"/>
<use data-text="m" xlink:href="#font_1_75" transform="matrix(10.909428,0,0,-10.909644,108.49894,164.2792)"/>
<use data-text="o" xlink:href="#font_1_81" transform="matrix(10.909428,0,0,-10.909644,117.586498,164.2792)"/>
<use data-text="u" xlink:href="#font_1_109" transform="matrix(10.909428,0,0,-10.909644,123.04121,164.2792)"/>
<use data-text="n" xlink:href="#font_1_77" transform="matrix(10.909428,0,0,-10.909644,129.10684,164.2792)"/>
<use data-text="t" xlink:href="#font_1_105" transform="matrix(10.909428,0,0,-10.909644,134.86704,164.2792)"/>
<use data-text="s" xlink:href="#font_1_98" transform="matrix(10.909428,0,0,-10.909644,142.73273,164.2792)"/>
<use data-text="o" xlink:href="#font_1_81" transform="matrix(10.909428,0,0,-10.909644,147.03104,164.2792)"/>
<use data-text="l" xlink:href="#font_1_72" transform="matrix(10.909428,0,0,-10.909644,152.48575,164.2792)"/>
<use data-text="u" xlink:href="#font_1_109" transform="matrix(10.909428,0,0,-10.909644,155.51859,164.2792)"/>
<use data-text="t" xlink:href="#font_1_105" transform="matrix(10.909428,0,0,-10.909644,161.58423,164.2792)"/>
<use data-text="i" xlink:href="#font_1_66" transform="matrix(10.909428,0,0,-10.909644,165.82798,164.2792)"/>
<use data-text="o" xlink:href="#font_1_81" transform="matrix(10.909428,0,0,-10.909644,168.86081,164.2792)"/>
<use data-text="n" xlink:href="#font_1_77" transform="matrix(10.909428,0,0,-10.909644,174.31552,164.2792)"/>
<use data-text="=" xlink:href="#font_2_11" transform="matrix(10.909428,0,0,-10.909644,184.02466,164.2792)"/>
<use data-text="x" xlink:href="#font_3_2" transform="matrix(10.909428,0,0,-10.909644,195.54001,164.2792)"/>
<use data-text="+" xlink:href="#font_2_3" transform="matrix(10.909428,0,0,-10.909644,204.19925,164.2792)"/>
<use data-text="8" xlink:href="#font_2_10" transform="matrix(10.909428,0,0,-10.909644,215.09778,164.2792)"/>
<use data-text="0" xlink:href="#font_2_4" transform="matrix(10.909428,0,0,-10.909644,220.55252,164.2792)"/>
<use data-text="c" xlink:href="#font_1_43" transform="matrix(10.909428,0,0,-10.909644,114.9686,178.6459)"/>
<use data-text="o" xlink:href="#font_1_81" transform="matrix(10.909428,0,0,-10.909644,119.81238,178.6459)"/>
<use data-text="n" xlink:href="#font_1_77" transform="matrix(10.909428,0,0,-10.909644,125.26709,178.6459)"/>
<use data-text="c" xlink:href="#font_1_43" transform="matrix(10.909428,0,0,-10.909644,131.33274,178.6459)"/>
<use data-text="e" xlink:href="#font_1_50" transform="matrix(10.909428,0,0,-10.909644,136.17653,178.6459)"/>
<use data-text="n" xlink:href="#font_1_77" transform="matrix(10.909428,0,0,-10.909644,141.02031,178.6459)"/>
<use data-text="t" xlink:href="#font_1_105" transform="matrix(10.909428,0,0,-10.909644,146.78049,178.6459)"/>
<use data-text="r" xlink:href="#font_1_96" transform="matrix(10.909428,0,0,-10.909644,151.02426,178.6459)"/>
<use data-text="a" xlink:href="#font_1_28" transform="matrix(10.909428,0,0,-10.909644,155.30075,178.6459)"/>
<use data-text="t" xlink:href="#font_1_105" transform="matrix(10.909428,0,0,-10.909644,160.75547,178.6459)"/>
<use data-text="i" xlink:href="#font_1_66" transform="matrix(10.909428,0,0,-10.909644,164.99922,178.6459)"/>
<use data-text="o" xlink:href="#font_1_81" transform="matrix(10.909428,0,0,-10.909644,168.03205,178.6459)"/>
<use data-text="n" xlink:href="#font_1_77" transform="matrix(10.909428,0,0,-10.909644,173.48676,178.6459)"/>
<use data-text="=" xlink:href="#font_2_11" transform="matrix(10.909428,0,0,-10.909644,183.18465,178.6459)"/>
<use data-text="0" xlink:href="#font_2_4" transform="matrix(10.909428,0,0,-10.909644,194.68318,178.6459)"/>
<use data-text="." xlink:href="#font_3_1" transform="matrix(10.909428,0,0,-10.909644,200.15515,178.6459)"/>
<use data-text="4" xlink:href="#font_2_7" transform="matrix(10.909428,0,0,-10.909644,203.18526,178.6459)"/>
<use data-text="5" xlink:href="#font_2_8" transform="matrix(10.909428,0,0,-10.909644,208.63997,178.6459)"/>
<use data-text="a" xlink:href="#font_1_28" transform="matrix(10.909428,0,0,-10.909644,98.230098,192.02356)"/>
<use data-text="m" xlink:href="#font_1_75" transform="matrix(10.909428,0,0,-10.909644,103.68479,192.02356)"/>
<use data-text="o" xlink:href="#font_1_81" transform="matrix(10.909428,0,0,-10.909644,112.77235,192.02356)"/>
<use data-text="u" xlink:href="#font_1_109" transform="matrix(10.909428,0,0,-10.909644,118.22706,192.02356)"/>
<use data-text="n" xlink:href="#font_1_77" transform="matrix(10.909428,0,0,-10.909644,124.2927,192.02356)"/>
<use data-text="t" xlink:href="#font_1_105" transform="matrix(10.909428,0,0,-10.909644,130.05289,192.02356)"/>
<use data-text="a" xlink:href="#font_1_28" transform="matrix(10.909428,0,0,-10.909644,137.91858,192.02356)"/>
<use data-text="c" xlink:href="#font_1_43" transform="matrix(10.909428,0,0,-10.909644,143.37329,192.02356)"/>
<use data-text="i" xlink:href="#font_1_66" transform="matrix(10.909428,0,0,-10.909644,148.21707,192.02356)"/>
<use data-text="d" xlink:href="#font_1_47" transform="matrix(10.909428,0,0,-10.909644,151.24991,192.02356)"/>
<use data-text="=" xlink:href="#font_2_11" transform="matrix(10.909428,0,0,-10.909644,160.95899,192.02356)"/>
<use data-text="0" xlink:href="#font_2_4" transform="matrix(10.909428,0,0,-10.909644,172.45752,192.02356)"/>
<use data-text="." xlink:href="#font_3_1" transform="matrix(10.909428,0,0,-10.909644,177.9295,192.02356)"/>
<use data-text="4" xlink:href="#font_2_7" transform="matrix(10.909428,0,0,-10.909644,180.9596,192.02356)"/>
<use data-text="5" xlink:href="#font_2_8" transform="matrix(10.909428,0,0,-10.909644,186.4143,192.02356)"/>
<use data-text="(" xlink:href="#font_2_1" transform="matrix(10.909428,0,0,-10.909644,191.86902,192.02356)"/>
<use data-text="x" xlink:href="#font_3_2" transform="matrix(10.909428,0,0,-10.909644,196.11103,192.02356)"/>
<use data-text="+" xlink:href="#font_2_3" transform="matrix(10.909428,0,0,-10.909644,204.7703,192.02356)"/>
<use data-text="8" xlink:href="#font_2_10" transform="matrix(10.909428,0,0,-10.909644,215.6688,192.02356)"/>
<use data-text="0" xlink:href="#font_2_4" transform="matrix(10.909428,0,0,-10.909644,221.12354,192.02356)"/>
<use data-text=")" xlink:href="#font_2_2" transform="matrix(10.909428,0,0,-10.909644,226.57825,192.02356)"/>
<use data-text="a" xlink:href="#font_1_28" transform="matrix(10.909428,0,0,-10.909644,88.53281,206.1973)"/>
<use data-text="m" xlink:href="#font_1_75" transform="matrix(10.909428,0,0,-10.909644,93.9875,206.1973)"/>
<use data-text="o" xlink:href="#font_1_81" transform="matrix(10.909428,0,0,-10.909644,103.07506,206.1973)"/>
<use data-text="u" xlink:href="#font_1_109" transform="matrix(10.909428,0,0,-10.909644,108.52977,206.1973)"/>
<use data-text="n" xlink:href="#font_1_77" transform="matrix(10.909428,0,0,-10.909644,114.59541,206.1973)"/>
<use data-text="t" xlink:href="#font_1_105" transform="matrix(10.909428,0,0,-10.909644,120.35559,206.1973)"/>
<use data-text="a" xlink:href="#font_1_28" transform="matrix(10.909428,0,0,-10.909644,128.2213,206.1973)"/>
<use data-text="c" xlink:href="#font_1_43" transform="matrix(10.909428,0,0,-10.909644,133.67601,206.1973)"/>
<use data-text="i" xlink:href="#font_1_66" transform="matrix(10.909428,0,0,-10.909644,138.51979,206.1973)"/>
<use data-text="d" xlink:href="#font_1_47" transform="matrix(10.909428,0,0,-10.909644,141.55261,206.1973)"/>
<use data-text="=" xlink:href="#font_2_11" transform="matrix(10.909428,0,0,-10.909644,151.26169,206.1973)"/>
<use data-text="0" xlink:href="#font_2_4" transform="matrix(10.909428,0,0,-10.909644,162.76023,206.1973)"/>
<use data-text="." xlink:href="#font_3_1" transform="matrix(10.909428,0,0,-10.909644,168.23221,206.1973)"/>
<use data-text="2" xlink:href="#font_2_6" transform="matrix(10.909428,0,0,-10.909644,171.2623,206.1973)"/>
<use data-text="0" xlink:href="#font_2_4" transform="matrix(10.909428,0,0,-10.909644,176.71703,206.1973)"/>
<use data-text="x" xlink:href="#font_3_2" transform="matrix(10.909428,0,0,-10.909644,182.17162,206.1973)"/>
<use data-text="+" xlink:href="#font_2_3" transform="matrix(10.909428,0,0,-10.909644,190.83089,206.1973)"/>
<use data-text="0" xlink:href="#font_2_4" transform="matrix(10.909428,0,0,-10.909644,201.72939,206.1973)"/>
<use data-text="." xlink:href="#font_3_1" transform="matrix(10.909428,0,0,-10.909644,207.19539,206.1973)"/>
<use data-text="6" xlink:href="#font_2_9" transform="matrix(10.909428,0,0,-10.909644,210.22548,206.1973)"/>
<use data-text="1" xlink:href="#font_2_5" transform="matrix(10.909428,0,0,-10.909644,215.68019,206.1973)"/>
<use data-text="(" xlink:href="#font_2_1" transform="matrix(10.909428,0,0,-10.909644,221.1349,206.1973)"/>
<use data-text="8" xlink:href="#font_2_10" transform="matrix(10.909428,0,0,-10.909644,225.36779,206.1973)"/>
<use data-text="0" xlink:href="#font_2_4" transform="matrix(10.909428,0,0,-10.909644,230.8225,206.1973)"/>
<use data-text=")" xlink:href="#font_2_2" transform="matrix(10.909428,0,0,-10.909644,236.2772,206.1973)"/>
</svg>
