<svg xmlns="http://www.w3.org/2000/svg" xmlns:xlink="http://www.w3.org/1999/xlink" xmlns:inkscape="http://www.inkscape.org/namespaces/inkscape" version="1.1" width="154" height="74" viewBox="0 0 154 74">
<defs>
<path id="font_1_1" d="M.37298585 .37835694C.35499574 .41537477 .32598878 .4423828 .2809906 .4423828 .1639862 .4423828 .039993287 .29533387 .039993287 .14929199 .039993287 .055267335 .09498596-.0107421879 .17298889-.0107421879 .19299317-.0107421879 .24299622-.0067443849 .30299378 .06427002 .31098939 .022247315 .34599305-.0107421879 .3939972-.0107421879 .42900086-.0107421879 .45199586 .012252808 .46798707 .044265748 .4850006 .08027649 .49798585 .14129639 .49798585 .14329529 .49798585 .1532898 .4889984 .1532898 .48599244 .1532898 .47599793 .1532898 .47499085 .14929199 .47200013 .13528443 .45498658 .07026672 .43699647 .011245728 .3959961 .011245728 .36898805 .011245728 .3659973 .037261964 .3659973 .057266237 .3659973 .07926941 .36799623 .08728027 .3789978 .13128662 .3899994 .17329407 .3919983 .18330384 .40098573 .22131348L.43699647 .36135865C.44400025 .38935853 .44400025 .39135743 .44400025 .39537049 .44400025 .41236878 .43199159 .42237855 .4149933 .42237855 .3909912 .42237855 .37599183 .4003601 .37298585 .37835694M.30799867 .119277957C.30299378 .10127258 .30299378 .09927368 .28799439 .08227539 .24398804 .027252198 .20298767 .011245728 .1749878 .011245728 .125 .011245728 .11099243 .06626892 .11099243 .105285648 .11099243 .1552887 .14299011 .27833558 .1659851 .32434083 .19699097 .38336183 .24198914 .42037965 .28199769 .42037965 .34700013 .42037965 .36099244 .3383484 .36099244 .33235169 .36099244 .32633973 .35899354 .32034303 .35798646 .31533814L.30799867 .119277957Z"/>
<path id="font_1_2" d="M.23899842 .68333438C.23899842 .6843262 .23899842 .69433596 .22599793 .69433596 .20298767 .69433596 .12998963 .6863251 .10398865 .6843262 .09599304 .68333438 .084991458 .6823273 .084991458 .6643219 .084991458 .6523285 .09399414 .6523285 .10899353 .6523285 .15699768 .6523285 .15899658 .6453247 .15899658 .6353302 .15899658 .6283264 .1499939 .5943451 .14498902 .573349L.06298828 .24731446C.050994874 .1973114 .04699707 .18130493 .04699707 .14628601 .04699707 .05126953 .099990848-.0107421879 .17399597-.0107421879 .2919922-.0107421879 .4149933 .1382904 .4149933 .28233338 .4149933 .37335206 .3619995 .4423828 .28199769 .4423828 .23599243 .4423828 .19499207 .41337586 .16499329 .38235475L.23899842 .68333438M.14498902 .30534364C.15098572 .3273468 .15098572 .3293457 .1599884 .3403473 .20899964 .405365 .2539978 .42037965 .27999879 .42037965 .31599427 .42037965 .34298707 .3903656 .34298707 .32633973 .34298707 .26733399 .30999757 .15229798 .2919922 .11428833 .25898744 .04725647 .21299744 .011245728 .17399597 .011245728 .13999939 .011245728 .10699463 .038253786 .10699463 .11227417 .10699463 .13128662 .10699463 .15029907 .12298584 .21331787L.14498902 .30534364Z"/>
</defs>
<path transform="matrix(1.00003,0,0,-1.00003,3.5621367,2.9925194)" stroke-width=".79701" stroke-linecap="butt" stroke-miterlimit="10" stroke-linejoin="miter" fill="none" stroke="#000000" d="M0 0H85.04042"/>
<path transform="matrix(1.00003,0,0,-1.00003,3.5621367,2.9925194)" d="M1.99255 0C1.99255 1.10046 1.10046 1.99255 0 1.99255-1.10046 1.99255-1.99255 1.10046-1.99255 0-1.99255-1.10046-1.10046-1.99255 0-1.99255 1.10046-1.99255 1.99255-1.10046 1.99255 0ZM0 0"/>
<path transform="matrix(1.00003,0,0,-1.00003,3.5621367,2.9925194)" d="M87.03297 0C87.03297 1.10046 86.1409 1.99255 85.04042 1.99255 83.93996 1.99255 83.04787 1.10046 83.04787 0 83.04787-1.10046 83.93996-1.99255 85.04042-1.99255 86.1409-1.99255 87.03297-1.10046 87.03297 0ZM85.04042 0"/>
<use data-text="a" xlink:href="#font_1_1" transform="matrix(10.909428,0,0,-10.909428,43.20033,13.845846)"/>
<path transform="matrix(1.00003,0,0,-1.00003,3.5621367,2.9925194)" stroke-width=".79701" stroke-linecap="butt" stroke-miterlimit="10" stroke-linejoin="miter" fill="none" stroke="#000000" d="M90.7097 0H147.40332"/>
<path transform="matrix(1.00003,0,0,-1.00003,3.5621367,2.9925194)" d="M92.70226 0C92.70226 1.10046 91.81017 1.99255 90.7097 1.99255 89.60922 1.99255 88.71715 1.10046 88.71715 0 88.71715-1.10046 89.60922-1.99255 90.7097-1.99255 91.81017-1.99255 92.70226-1.10046 92.70226 0ZM90.7097 0"/>
<path transform="matrix(1.00003,0,0,-1.00003,3.5621367,2.9925194)" d="M149.39588 0C149.39588 1.10046 148.50379 1.99255 147.40332 1.99255 146.30284 1.99255 145.41077 1.10046 145.41077 0 145.41077-1.10046 146.30284-1.99255 147.40332-1.99255 148.50379-1.99255 149.39588-1.10046 149.39588 0ZM147.40332 0"/>
<use data-text="b" xlink:href="#font_1_2" transform="matrix(10.909428,0,0,-10.909428,120.28165,15.284887)"/>
<path transform="matrix(1.00003,0,0,-1.00003,3.5621367,2.9925194)" stroke-width=".79701" stroke-linecap="butt" stroke-miterlimit="10" stroke-linejoin="miter" fill="none" stroke="#000000" d="M0-56.69362H56.69362"/>
<path transform="matrix(1.00003,0,0,-1.00003,3.5621367,2.9925194)" d="M1.99255-56.69362C1.99255-55.59314 1.10046-54.70107 0-54.70107-1.10046-54.70107-1.99255-55.59314-1.99255-56.69362-1.99255-57.79408-1.10046-58.68617 0-58.68617 1.10046-58.68617 1.99255-57.79408 1.99255-56.69362ZM0-56.69362"/>
<path transform="matrix(1.00003,0,0,-1.00003,3.5621367,2.9925194)" d="M58.68617-56.69362C58.68617-55.59314 57.79408-54.70107 56.69362-54.70107 55.59314-54.70107 54.70107-55.59314 54.70107-56.69362 54.70107-57.79408 55.59314-58.68617 56.69362-58.68617 57.79408-58.68617 58.68617-57.79408 58.68617-56.69362ZM56.69362-56.69362"/>
<use data-text="b" xlink:href="#font_1_2" transform="matrix(10.909428,0,0,-10.909428,29.56892,71.9806)"/>
<path transform="matrix(1.00003,0,0,-1.00003,3.5621367,2.9925194)" stroke-width=".79701" stroke-linecap="butt" stroke-miterlimit="10" stroke-linejoin="miter" fill="none" stroke="#000000" d="M62.36288-56.69362H147.40332"/>
<path transform="matrix(1.00003,0,0,-1.00003,3.5621367,2.9925194)" d="M64.35544-56.69362C64.35544-55.59314 63.46336-54.70107 62.36288-54.70107 61.26242-54.70107 60.37033-55.59314 60.37033-56.69362 60.37033-57.79408 61.26242-58.68617 62.36288-58.68617 63.46336-58.68617 64.35544-57.79408 64.35544-56.69362ZM62.36288-56.69362"/>
<path transform="matrix(1.00003,0,0,-1.00003,3.5621367,2.9925194)" d="M149.39588-56.69362C149.39588-55.59314 148.50379-54.70107 147.40332-54.70107 146.30284-54.70107 145.41077-55.59314 145.41077-56.69362 145.41077-57.79408 146.30284-58.68617 147.40332-58.68617 148.50379-58.68617 149.39588-57.79408 149.39588-56.69362ZM147.40332-56.69362"/>
<use data-text="a" xlink:href="#font_1_1" transform="matrix(10.909428,0,0,-10.909428,105.5652,70.54055)"/>
</svg>
