<svg xmlns="http://www.w3.org/2000/svg" xmlns:xlink="http://www.w3.org/1999/xlink" xmlns:inkscape="http://www.inkscape.org/namespaces/inkscape" version="1.1" width="330" height="195" viewBox="0 0 330 195">
<defs>
<path id="font_1_28" d="M.48298646 .08912659V.14511109H.45799256V.08912659C.45799256 .03112793 .43299867 .025131226 .42199708 .025131226 .3889923 .025131226 .3849945 .070129398 .3849945 .07511902V.27508546C.3849945 .31707765 .3849945 .3560791 .34899903 .39312745 .30999757 .43223573 .2599945 .4482422 .21199036 .4482422 .12998963 .4482422 .06098938 .40115357 .06098938 .335083 .06098938 .30508424 .08099365 .28808595 .10699463 .28808595 .1349945 .28808595 .15299988 .30807496 .15299988 .33407594 .15299988 .3460846 .147995 .37908937 .101989749 .38008119 .1289978 .41519166 .17799378 .426239 .20999146 .426239 .25898744 .426239 .31599427 .38710023 .31599427 .29808045V.26107789C.2649994 .25808717 .19499207 .25508119 .13198853 .22509766 .056991579 .19110108 .03199768 .13911438 .03199768 .09512329 .03199768 .014251709 .1289978-.0107421879 .19198609-.0107421879 .2579956-.0107421879 .3039856 .029251099 .32299806 .07624817 .32699586 .036132814 .35398866-.005859375 .40098573-.005859375 .42199708-.005859375 .48298646 .008132935 .48298646 .08912659M.31599427 .14013672C.31599427 .04525757 .24398804 .011245728 .19898987 .011245728 .1499939 .011245728 .10899353 .04624939 .10899353 .09625244 .10899353 .15124512 .15098572 .23425293 .31599427 .24024964V.14013672Z"/>
<path id="font_1_75" d="M.8129883 0V.0309906C.7609863 .0309906 .73599246 .0309906 .7350006 .061019899V.25221253C.7350006 .3383026 .7350006 .36932374 .70399478 .405365 .6899872 .42237855 .6569977 .4423828 .598999 .4423828 .5149994 .4423828 .47099305 .38233949 .45399476 .34429933 .43998719 .43138124 .3659973 .4423828 .32099916 .4423828 .24798584 .4423828 .20098877 .39935304 .17298889 .33729554V.4423828L.03199768 .43066407V.3996582C.101989749 .3996582 .10998535 .39266969 .10998535 .34370423V.07595825C.10998535 .0309906 .09899902 .0309906 .03199768 .0309906V0L.14498902 .0029907227 .25698854 0V.0309906C.18998719 .0309906 .1789856 .0309906 .1789856 .07595825V.25978089C.1789856 .36431886 .25 .42037965 .31399537 .42037965 .3769989 .42037965 .3880005 .36631776 .3880005 .30926515V.076034549C.3880005 .0309906 .3769989 .0309906 .30999757 .0309906V0L.4229889 .0029907227 .5349884 0V.0309906C.46798707 .0309906 .45700074 .0309906 .45700074 .076034549V.2602234C.45700074 .36431886 .5279999 .42037965 .59199526 .42037965 .6549988 .42037965 .66600039 .36631776 .66600039 .30926515V.076034549C.66600039 .0309906 .6549988 .0309906 .58799746 .0309906V0L.70098879 .0029907227 .8129883 0Z"/>
<path id="font_1_81" d="M.47099305 .21424866C.47099305 .34223939 .37098695 .4482422 .25 .4482422 .125 .4482422 .027999878 .3392334 .027999878 .21424866 .027999878 .085250858 .13198853-.0107421879 .24899292-.0107421879 .36999513-.0107421879 .47099305 .087249759 .47099305 .21424866M.3880005 .22224427C.3880005 .18624878 .3880005 .13224793 .3659973 .08824158 .34399415 .04324341 .2999878 .014251709 .25 .014251709 .20698548 .014251709 .16299439 .035247804 .13598633 .08125305 .11099243 .12524414 .11099243 .18624878 .11099243 .22224427 .11099243 .26124574 .11099243 .31523133 .1349945 .35923768 .1619873 .40522767 .20899964 .426239 .24899292 .426239 .29299928 .426239 .33599855 .40423585 .3619995 .36123658 .3880005 .3182373 .3880005 .26023866 .3880005 .22224427Z"/>
<path id="font_1_109" d="M.5349884 0V.0309906C.46499635 .0309906 .45700074 .037994386 .45700074 .08705139V.4423828L.30999757 .43066407V.3996582C.37998963 .3996582 .3880005 .39266969 .3880005 .34373475V.16601563C.3880005 .07910156 .33999635 .011245728 .2669983 .011245728 .18299866 .011245728 .1789856 .058135988 .1789856 .11009216V.4423828L.03199768 .43066407V.3996582C.10998535 .3996582 .10998535 .39666749 .10998535 .3078003V.15802002C.10998535 .080093387 .10998535-.0107421879 .2619934-.0107421879 .31799317-.0107421879 .3619995 .017242432 .3909912 .07910156V-.0107421879L.5349884 0Z"/>
<path id="font_1_77" d="M.5349884 0V.0309906C.48298646 .0309906 .45799256 .0309906 .45700074 .061019899V.25221253C.45700074 .3383026 .45700074 .36932374 .42599488 .405365 .4119873 .42237855 .3789978 .4423828 .32099916 .4423828 .24798584 .4423828 .20098877 .39935304 .17298889 .33729554V.4423828L.03199768 .43066407V.3996582C.101989749 .3996582 .10998535 .39266969 .10998535 .34370423V.07595825C.10998535 .0309906 .09899902 .0309906 .03199768 .0309906V0L.14498902 .0029907227 .25698854 0V.0309906C.18998719 .0309906 .1789856 .0309906 .1789856 .07595825V.25978089C.1789856 .36431886 .25 .42037965 .31399537 .42037965 .3769989 .42037965 .3880005 .36631776 .3880005 .30926515V.076034549C.3880005 .0309906 .3769989 .0309906 .30999757 .0309906V0L.4229889 .0029907227 .5349884 0Z"/>
<path id="font_1_105" d="M.33198548 .12385559V.18066406H.30699159V.12585449C.30699159 .052108766 .2769928 .014251709 .23999024 .014251709 .17298889 .014251709 .17298889 .10491943 .17298889 .12187195V.3996582H.31599427V.43066407H.17298889V.6142578H.147995C.14698792 .5324249 .116989139 .42565919 .018997193 .42166139V.3996582H.10398865V.12408447C.10398865 .0012512207 .19699097-.0107421879 .23298645-.0107421879 .3039856-.0107421879 .33198548 .060180665 .33198548 .12408447V.12385559Z"/>
<path id="font_1_98" d="M.3600006 .12823487C.3600006 .18122864 .32998658 .21122742 .31799317 .22323609 .2849884 .25523377 .24598694 .26322938 .20399475 .27124024 .147995 .28224183 .08099365 .29522706 .08099365 .35324098 .08099365 .38822938 .10699463 .42922975 .19299317 .42922975 .30299378 .42922975 .30799867 .3392334 .30999757 .30822755 .31098939 .2992401 .32199098 .2992401 .32199098 .2992401 .33499146 .2992401 .33499146 .30422975 .33499146 .32322694V.4242401C.33499146 .4412384 .33499146 .4482422 .32398988 .4482422 .31900025 .4482422 .31698609 .4482422 .3039856 .43623353 .30099488 .43223573 .29100038 .42323304 .2869873 .42022706 .24899292 .4482422 .20799256 .4482422 .19299317 .4482422 .070999149 .4482422 .032989503 .38124085 .032989503 .3252411 .032989503 .29023744 .04899597 .26223756 .07598877 .24023438 .10798645 .2142334 .13598633 .2082367 .20799256 .19422913 .22999573 .19021607 .31199647 .17422486 .31199647 .10221863 .31199647 .051223756 .2769928 .011245728 .19898987 .011245728 .114990238 .011245728 .07899475 .068222049 .05999756 .1532135 .056991579 .16621399 .055999757 .17021179 .04598999 .17021179 .032989503 .17021179 .032989503 .16322327 .032989503 .1452179V.013214111C.032989503-.003753662 .032989503-.0107421879 .04399109-.0107421879 .04899597-.0107421879 .049987794-.009750366 .068984989 .009246826 .070999149 .011245728 .070999149 .013214111 .08898926 .032226564 .1329956-.009750366 .17799378-.0107421879 .19898987-.0107421879 .31399537-.0107421879 .3600006 .05621338 .3600006 .1282196V.12823487Z"/>
<path id="font_1_72" d="M.25498963 0V.0309906C.18798828 .0309906 .1769867 .0309906 .1769867 .07601929V.69433596L.032989503 .6826172V.6516113C.102996829 .6516113 .11099243 .64460757 .11099243 .5956421V.07595825C.11099243 .0309906 .099990848 .0309906 .032989503 .0309906V0L.14399719 .0029907227 .25498963 0Z"/>
<path id="font_1_66" d="M.24699402 0V.0309906C.18099976 .0309906 .1769867 .035995485 .1769867 .075042728V.4423828L.036987306 .43066407V.3996582C.101989749 .3996582 .11099243 .3936615 .11099243 .3447113V.07595825C.11099243 .0309906 .099990848 .0309906 .032989503 .0309906V0L.14299011 .0029907227C.17799378 .0029907227 .21299744 .0009918213 .24699402 0M.19198609 .603775C.19198609 .6307678 .16899109 .6567688 .13899231 .6567688 .10499573 .6567688 .084991458 .6287689 .084991458 .603775 .084991458 .57676699 .10798645 .55078127 .13798523 .55078127 .17199707 .55078127 .19198609 .5787811 .19198609 .603775Z"/>
<path id="font_2_11" d="M.68699648 .32714845C.70199587 .32714845 .72099307 .32714845 .72099307 .34713746 .72099307 .36714173 .70199587 .36714173 .6879883 .36714173H.08898926C.07499695 .36714173 .055999757 .36714173 .055999757 .34713746 .055999757 .32714845 .07499695 .32714845 .08999634 .32714845H.68699648M.6879883 .13284302C.70199587 .13284302 .72099307 .13284302 .72099307 .15284729 .72099307 .17285156 .70199587 .17285156 .68699648 .17285156H.08999634C.07499695 .17285156 .055999757 .17285156 .055999757 .15284729 .055999757 .13284302 .07499695 .13284302 .08898926 .13284302H.6879883Z"/>
<path id="font_2_9" d="M.16299439 .4569702C.116989139 .486969 .11299133 .52098086 .11299133 .5379791 .11299133 .598999 .17799378 .64100649 .24899292 .64100649 .32199098 .64100649 .38598634 .58898928 .38598634 .51698306 .38598634 .45996095 .34700013 .4119568 .2869873 .37695313L.16299439 .4569702M.30899049 .36193849C.3809967 .3989563 .42999269 .45095826 .42999269 .51698306 .42999269 .6090088 .34098817 .6660156 .25 .6660156 .1499939 .6660156 .068984989 .59199526 .068984989 .49897767 .068984989 .4809723 .070999149 .43595887 .11299133 .38894654 .12399292 .37695313 .16099549 .35194398 .18598938 .33494569 .12799073 .30592347 .041992189 .24984741 .041992189 .15072632 .041992189 .04458618 .14399719-.022460938 .24899292-.022460938 .3619995-.022460938 .45700074 .06060791 .45700074 .16773987 .45700074 .20379639 .44599916 .24885559 .4079895 .2909088 .3889923 .31193543 .37298585 .3219452 .30899049 .36193849M.20899964 .3199463 .33198548 .24183655C.3600006 .2228241 .40699769 .19277954 .40699769 .13169861 .40699769 .05760193 .33198548 .0055389406 .25 .0055389406 .1639862 .0055389406 .09199524 .067611698 .09199524 .15072632 .09199524 .20880127 .12399292 .27288819 .20899964 .3199463Z"/>
<path id="font_1_43" d="M.4149933 .119140628C.4149933 .12911988 .40499879 .12911988 .4019928 .12911988 .3929901 .12911988 .3909912 .12512207 .3889923 .119140628 .3600006 .026229859 .29499818 .014251709 .2579956 .014251709 .20498657 .014251709 .116989139 .0572052 .116989139 .21801758 .116989139 .38093568 .19898987 .42323304 .2519989 .42323304 .26098634 .42323304 .32398988 .42222596 .35899354 .38594056 .31799317 .38293458 .31199647 .3529358 .31199647 .3399353 .31199647 .31393434 .32998658 .2939453 .35798646 .2939453 .38398744 .2939453 .4039917 .3109436 .4039917 .34094239 .4039917 .40911866 .32798768 .4482422 .25099183 .4482422 .12599182 .4482422 .033996583 .3399353 .033996583 .21601868 .033996583 .08816528 .1329956-.0107421879 .24899292-.0107421879 .3829956-.0107421879 .4149933 .10914612 .4149933 .119140628Z"/>
<path id="font_1_50" d="M.4149933 .11933899C.4149933 .12934876 .40699769 .13134766 .4019928 .13134766 .3929901 .13134766 .3909912 .12535095 .3889923 .11734009 .35398866 .014251709 .2639923 .014251709 .2539978 .014251709 .20399475 .014251709 .1639862 .044281007 .14099121 .08131409 .11099243 .12934876 .11099243 .19540406 .11099243 .23144531H.3899994C.4119873 .23144531 .4149933 .23144531 .4149933 .2524414 .4149933 .35131837 .36099244 .4482422 .23599243 .4482422 .11999512 .4482422 .027999878 .34532167 .027999878 .22042847 .027999878 .08631897 .1329956-.0107421879 .24798584-.0107421879 .36999513-.0107421879 .4149933 .10032654 .4149933 .11933899M.34899903 .2524414H.11199951C.117996219 .40126039 .20199585 .426239 .23599243 .426239 .33898927 .426239 .34899903 .2913971 .34899903 .2524414Z"/>
<path id="font_1_96" d="M.3639984 .38137818C.3639984 .41337586 .33299256 .4423828 .2899933 .4423828 .21699524 .4423828 .18099976 .37538148 .16699219 .3323822V.4423828L.027999878 .43066407V.3996582C.09799194 .3996582 .10598755 .39266969 .10598755 .34370423V.07595825C.10598755 .0309906 .09498596 .0309906 .027999878 .0309906V0L.14199829 .0029907227C.18199158 .0029907227 .22898865 .0029907227 .2689972 0V.0309906H.24798584C.17399597 .0309906 .17199707 .04197693 .17199707 .07795715V.23181153C.17199707 .33137513 .21398926 .42037965 .2899933 .42037965 .29699708 .42037965 .29899598 .42037965 .30099488 .41937257 .2979889 .41838075 .27799989 .40637208 .27799989 .3803711 .27799989 .35237123 .29899598 .33737184 .32099916 .33737184 .33898927 .33737184 .3639984 .3493805 .3639984 .38137818Z"/>
<path id="font_2_2" d="M.45999146 .31976319C.45999146 .39982606 .45498658 .47988893 .41999818 .5539398 .37399293 .65000918 .2919922 .6660156 .25 .6660156 .18998719 .6660156 .116989139 .64001467 .07598877 .54693606 .04399109 .47789 .038986207 .39982606 .038986207 .31976319 .038986207 .24472046 .042999269 .15464783 .083999637 .07859802 .1269989-.0024719239 .19999695-.022460938 .24899292-.022460938 .30299378-.022460938 .3789978-.0014648438 .4229889 .09359741 .45498658 .16265869 .45999146 .2407074 .45999146 .31976319M.24899292-.00047302247C.20999146-.00047302247 .15098572 .024551392 .1329956 .12062073 .12199402 .18066406 .12199402 .2727356 .12199402 .3317871 .12199402 .39582826 .12199402 .46188355 .12998963 .5159149 .14898682 .63500979 .22399903 .64401248 .24899292 .64401248 .28199769 .64401248 .34799195 .6259918 .36698915 .52693179 .3769989 .47088624 .3769989 .39482118 .3769989 .3317871 .3769989 .25672914 .3769989 .18867493 .3659973 .12461853 .35099793 .029556275 .2939911-.00047302247 .24899292-.00047302247Z"/>
<path id="font_3_1" d="M.19198609 .052993776C.19198609 .08198547 .16799927 .10598755 .13899231 .10598755 .10998535 .10598755 .085998538 .08198547 .085998538 .052993776 .085998538 .023986817 .10998535 0 .13899231 0 .16799927 0 .19198609 .023986817 .19198609 .052993776Z"/>
<path id="font_2_6" d="M.44898988 .20022583C.44898988 .3193512 .36698915 .41944886 .25898744 .41944886 .21099854 .41944886 .16799927 .40345765 .13198853 .36842347V.5637665C.1519928 .5577698 .18499756 .55078127 .21699524 .55078127 .33999635 .55078127 .4099884 .6417694 .4099884 .6547699 .4099884 .6607666 .40699769 .6657715 .3999939 .6657715 .39898683 .6657715 .39698792 .6657715 .3919983 .66278079 .37199403 .6537781 .32299806 .6337738 .2559967 .6337738 .21598816 .6337738 .16999817 .6407776 .12298584 .6617737 .114990238 .66477969 .11299133 .66477969 .11099243 .66477969 .100997928 .66477969 .100997928 .6567688 .100997928 .6407776V.34439088C.100997928 .32637025 .100997928 .31835938 .114990238 .31835938 .12199402 .31835938 .12399292 .32136537 .12799073 .32736207 .13899231 .3433838 .17599488 .39746095 .25698854 .39746095 .30899049 .39746095 .33399964 .35139466 .34199525 .33337403 .35798646 .29632569 .3600006 .25727845 .3600006 .20722962 .3600006 .17222595 .3600006 .11222839 .33599855 .07035828 .31199647 .031463624 .2749939 .0055389406 .22898865 .0055389406 .1559906 .0055389406 .09899902 .058380128 .08198547 .11723328 .084991458 .1162262 .08799744 .115234378 .09899902 .115234378 .13198853 .115234378 .14898682 .14022827 .14898682 .16423035 .14898682 .18823242 .13198853 .21322632 .09899902 .21322632 .084991458 .21322632 .049987794 .20622254 .049987794 .16023255 .049987794 .07434082 .11898804-.022460938 .23098755-.022460938 .34700013-.022460938 .44898988 .073349 .44898988 .20022583Z"/>
<path id="font_1_47" d="M.5269928 0V.0309906C.45700074 .0309906 .44898988 .038009645 .44898988 .0871582V.69433596L.30499269 .6826172V.6516113C.375 .6516113 .3829956 .64463809 .3829956 .59580996V.38035584C.35398866 .41636659 .31098939 .4423828 .25698854 .4423828 .13899231 .4423828 .033996583 .3443451 .033996583 .21531677 .033996583 .088272098 .13198853-.0107421879 .24598694-.0107421879 .30999757-.0107421879 .35499574 .023254395 .37998963 .055267335V-.0107421879L.5269928 0M.37998963 .117996219C.37998963 .099990848 .37998963 .09799194 .36898805 .08099365 .33898927 .033218385 .2939911 .011245728 .25099183 .011245728 .20599365 .011245728 .16999817 .037216188 .1459961 .075164798 .11999512 .1161499 .116989139 .17320252 .116989139 .21421814 .116989139 .25125123 .11898804 .31129457 .147995 .35632325 .16899109 .38734437 .20698548 .42037965 .26098634 .42037965 .29599 .42037965 .33799745 .405365 .36898805 .3603363 .37998963 .34332276 .37998963 .34132386 .37998963 .32330323V.117996219Z"/>
<path id="font_2_5" d="M.2939911 .16503906V.07800293C.2939911 .041992189 .2919922 .0309906 .21798706 .0309906H.19699097V0C.23799134 .0029907227 .2899933 .0029907227 .33198548 .0029907227 .37399293 .0029907227 .4269867 .0029907227 .46798707 0V.0309906H.44699098C.37298585 .0309906 .37098695 .041992189 .37098695 .07800293V.16503906H.47099305V.19602967H.37098695V.65075686C.37098695 .67074587 .37098695 .6767578 .35499574 .6767578 .34599305 .6767578 .34298707 .6767578 .33499146 .66474917L.027999878 .19602967V.16503906H.2939911M.2999878 .19602967H.055999757L.2999878 .5688019V.19602967Z"/>
<path id="font_2_3" d="M.2939911 .64004519C.2939911 .66400149 .2939911 .6660156 .2709961 .6660156 .20899964 .60227969 .12098694 .60227969 .08898926 .60227969V.57128909C.10899353 .57128909 .16799927 .57128909 .21998596 .5972748V.07902527C.21998596 .042999269 .21699524 .0309906 .1269989 .0309906H.09498596V0C.12998963 .0029907227 .21699524 .0029907227 .25698854 .0029907227 .29699708 .0029907227 .38398744 .0029907227 .4189911 0V.0309906H.3869934C.29699708 .0309906 .2939911 .041992189 .2939911 .07902527V.64004519Z"/>
<path id="font_2_4" d="M.1269989 .07699585 .23298645 .18003845C.3889923 .31811524 .44898988 .3721466 .44898988 .47216798 .44898988 .5860901 .35899354 .6660156 .23699951 .6660156 .12399292 .6660156 .049987794 .57411196 .049987794 .48516847 .049987794 .4291687 .099990848 .4291687 .102996829 .4291687 .11999512 .4291687 .15499878 .44117738 .15499878 .48217774 .15499878 .5081787 .13699341 .5341797 .101989749 .5341797 .09399414 .5341797 .09199524 .5341797 .08898926 .5331726 .11199951 .59806826 .1659851 .63500979 .22399903 .63500979 .31498719 .63500979 .35798646 .5541382 .35798646 .47216798 .35798646 .39215089 .30799867 .31311036 .25299073 .25108338L.06098938 .036987306C.049987794 .025985718 .049987794 .023986817 .049987794 0H.42099L.44898988 .17404175H.42399598C.4189911 .14402771 .4119873 .1000061 .4019928 .084991458 .394989 .07699585 .32899476 .07699585 .30699159 .07699585H.1269989Z"/>
<path id="font_2_8" d="M.47599793 .609375C.4850006 .6213684 .4850006 .62338259 .4850006 .64437869H.24198914C.11999512 .64437869 .117996219 .65737918 .11399841 .67637637H.08898926L.055999757 .4702301H.08099365C.083999637 .48625184 .09298706 .5493469 .10598755 .56137087 .11299133 .5673828 .19099427 .5673828 .20399475 .5673828H.41099549C.3999939 .5513611 .32099916 .4421997 .29899598 .40914918 .20899964 .27394105 .17599488 .1347351 .17599488 .032577516 .17599488 .022567749 .17599488-.022460938 .22200012-.022460938 .2679901-.022460938 .2679901 .022567749 .2679901 .032577516V.08366394C.2679901 .13873291 .2709961 .19381714 .2789917 .24790955 .2829895 .27093507 .29699708 .35707093 .34098817 .41915895L.47599793 .609375Z"/>
<path id="font_2_10" d="M.36698915 .31781007V.28579713C.36698915 .05178833 .2630005 .0055389406 .20498657 .0055389406 .18798828 .0055389406 .13398743 .007537842 .10699463 .041778566 .15098572 .041778566 .15899658 .07078552 .15899658 .08778381 .15899658 .118774417 .1349945 .13378906 .11299133 .13378906 .09700012 .13378906 .066986087 .12478638 .066986087 .08578491 .066986087 .018615723 .12098694-.022460938 .20599365-.022460938 .33499146-.022460938 .45700074 .11378479 .45700074 .32881166 .45700074 .5979767 .34199525 .6660156 .25299073 .6660156 .19799805 .6660156 .14898682 .64801028 .10598755 .60298159 .06498718 .5579529 .041992189 .5159302 .041992189 .44088746 .041992189 .31581117 .12998963 .21777344 .24198914 .21777344 .30299378 .21777344 .34399415 .25978089 .36698915 .31781007M.24299622 .24076844C.22698975 .24076844 .18099976 .24076844 .1499939 .3038025 .13198853 .3408203 .13198853 .39085389 .13198853 .43988038 .13198853 .49391175 .13198853 .54093936 .15299988 .5779724 .17999268 .6279907 .21798706 .64100649 .25299073 .64100649 .29899598 .64100649 .33198548 .60697939 .34899903 .5619507 .36099244 .52993777 .36499024 .4669037 .36499024 .42086793 .36499024 .3378296 .33099366 .24076844 .24299622 .24076844Z"/>
<path id="font_2_1" d="M.40899659 .23046875H.6879883C.70199587 .23046875 .72099307 .23046875 .72099307 .25045777 .72099307 .27046205 .70199587 .27046205 .6879883 .27046205H.40899659V.5500183C.40899659 .56399539 .40899659 .5830078 .3889923 .5830078 .36898805 .5830078 .36898805 .56399539 .36898805 .5500183V.27046205H.08898926C.07499695 .27046205 .055999757 .27046205 .055999757 .25045777 .055999757 .23046875 .07499695 .23046875 .08898926 .23046875H.36898805V-.05000305C.36898805-.06401062 .36898805-.08300781 .3889923-.08300781 .40899659-.08300781 .40899659-.06401062 .40899659-.05000305V.23046875Z"/>
<path id="font_2_7" d="M.13198853 .327713V.35173036C.13198853 .6047821 .2559967 .64100649 .30699159 .64100649 .33099366 .64100649 .37298585 .634964 .394989 .6007538 .37998963 .6007538 .33999635 .6007538 .33999635 .5557556 .33999635 .524765 .3639984 .5097656 .38598634 .5097656 .4019928 .5097656 .43199159 .51875308 .43199159 .5577545 .43199159 .6178589 .3880005 .6660156 .30499269 .6660156 .1769867 .6660156 .041992189 .5367584 .041992189 .31570436 .041992189 .048553468 .1579895-.022460938 .25099183-.022460938 .3619995-.022460938 .45700074 .07156372 .45700074 .2036438 .45700074 .33070375 .36799623 .4267578 .25698854 .4267578 .18899536 .4267578 .1519928 .37573243 .13198853 .327713M.25099183 .0055389406C.18798828 .0055389406 .1579895 .06556702 .1519928 .080566409 .13398743 .127594 .13398743 .2076416 .13398743 .22564698 .13398743 .30369569 .1659851 .40374757 .2559967 .40374757 .27198792 .40374757 .31799317 .40374757 .34899903 .34172059 .36698915 .30470277 .36698915 .2536621 .36698915 .20463562 .36698915 .15661621 .36698915 .10658264 .34999085 .0705719 .31999208 .010528564 .27398683 .0055389406 .25099183 .0055389406Z"/>
</defs>
<path transform="matrix(1.00006,0,0,-1.00002,164.16315,61.726839)" d="M-28.3468 0H-56.69362V11.33855H-28.3468Z" fill="#0000ff"/>
<path transform="matrix(1.00006,0,0,-1.00002,164.16315,61.726839)" d="M-28.3468 11.33855H-56.69362V22.67752H-28.3468Z" fill="#ff0000"/>
<path transform="matrix(1.00006,0,0,-1.00002,164.16315,61.726839)" stroke-width="1.59404" stroke-linecap="butt" stroke-miterlimit="10" stroke-linejoin="miter" fill="none" stroke="#000000" d="M-28.3468 56.69362V0H-56.69362V56.69362"/>
<path transform="matrix(1.00006,0,0,-1.00002,164.16315,61.726839)" d="M28.3468 0H56.69362V8.50412H28.3468Z" fill="#0000ff"/>
<path transform="matrix(1.00006,0,0,-1.00002,164.16315,61.726839)" d="M28.3468 8.50412H56.69362V34.01608H28.3468Z" fill="#ff0000"/>
<path transform="matrix(1.00006,0,0,-1.00002,164.16315,61.726839)" stroke-width="1.59404" stroke-linecap="butt" stroke-miterlimit="10" stroke-linejoin="miter" fill="none" stroke="#000000" d="M28.3468 56.69362V0H56.69362V56.69362"/>
<path transform="matrix(1.00006,0,0,-1.00002,164.16315,61.726839)" d="M-14.17339-85.04042H14.17339V-73.70186H-14.17339Z" fill="#0000ff"/>
<path transform="matrix(1.00006,0,0,-1.00002,164.16315,61.726839)" d="M-14.17339-73.70186H14.17339V-62.36288H-14.17339Z" fill="#ff0000"/>
<path transform="matrix(1.00006,0,0,-1.00002,164.16315,61.726839)" d="M-14.17339-62.36288H14.17339V-53.85875H-14.17339Z" fill="#0000ff"/>
<path transform="matrix(1.00006,0,0,-1.00002,164.16315,61.726839)" d="M-14.17339-53.85875H14.17339V-28.3468H-14.17339Z" fill="#ff0000"/>
<path transform="matrix(1.00006,0,0,-1.00002,164.16315,61.726839)" stroke-width="1.59404" stroke-linecap="butt" stroke-miterlimit="10" stroke-linejoin="miter" fill="none" stroke="#000000" d="M-14.17339-22.67752V-85.04042H14.17339V-22.67752"/>
<path transform="matrix(1.00006,0,0,-1.00002,164.16315,61.726839)" stroke-width=".3985" stroke-linecap="butt" stroke-miterlimit="10" stroke-linejoin="miter" fill="none" stroke="#000000" d="M-42.5202 53.85875V59.52846H-7.08669V-13.71512"/>
<path transform="matrix(0,1.00002,1.00006,0,157.07604,75.44223)" stroke-width=".31879" stroke-linecap="round" stroke-linejoin="round" fill="none" stroke="#000000" d="M-1.19551 1.59401C-1.09587 .99626 0 .09961 .29886 0 0-.09961-1.09587-.99626-1.19551-1.59401"/>
<path transform="matrix(1.00006,0,0,-1.00002,164.16315,61.726839)" stroke-width=".3985" stroke-linecap="butt" stroke-miterlimit="10" stroke-linejoin="miter" fill="none" stroke="#000000" d="M42.5202 53.85875V59.52846H7.08669V-13.71512"/>
<path transform="matrix(0,1.00002,1.00006,0,171.25026,75.44223)" stroke-width=".31879" stroke-linecap="round" stroke-linejoin="round" fill="none" stroke="#000000" d="M-1.19551 1.59401C-1.09587 .99626 0 .09961 .29886 0 0-.09961-1.09587-.99626-1.19551-1.59401"/>
<use data-text="a" xlink:href="#font_1_28" transform="matrix(10.909754,0,0,-10.909318,1.7914124,22.93106)"/>
<use data-text="m" xlink:href="#font_1_75" transform="matrix(10.909754,0,0,-10.909318,7.246277,22.93106)"/>
<use data-text="o" xlink:href="#font_1_81" transform="matrix(10.909754,0,0,-10.909318,16.334107,22.93106)"/>
<use data-text="u" xlink:href="#font_1_109" transform="matrix(10.909754,0,0,-10.909318,21.78897,22.93106)"/>
<use data-text="n" xlink:href="#font_1_77" transform="matrix(10.909754,0,0,-10.909318,27.854798,22.93106)"/>
<use data-text="t" xlink:href="#font_1_105" transform="matrix(10.909754,0,0,-10.909318,33.615159,22.93106)"/>
<use data-text="s" xlink:href="#font_1_98" transform="matrix(10.909754,0,0,-10.909318,41.481096,22.93106)"/>
<use data-text="o" xlink:href="#font_1_81" transform="matrix(10.909754,0,0,-10.909318,45.77954,22.93106)"/>
<use data-text="l" xlink:href="#font_1_72" transform="matrix(10.909754,0,0,-10.909318,51.234407,22.93106)"/>
<use data-text="u" xlink:href="#font_1_109" transform="matrix(10.909754,0,0,-10.909318,54.26732,22.93106)"/>
<use data-text="t" xlink:href="#font_1_105" transform="matrix(10.909754,0,0,-10.909318,60.333147,22.93106)"/>
<use data-text="i" xlink:href="#font_1_66" transform="matrix(10.909754,0,0,-10.909318,64.57703,22.93106)"/>
<use data-text="o" xlink:href="#font_1_81" transform="matrix(10.909754,0,0,-10.909318,67.60994,22.93106)"/>
<use data-text="n" xlink:href="#font_1_77" transform="matrix(10.909754,0,0,-10.909318,73.06482,22.93106)"/>
<use data-text="=" xlink:href="#font_2_11" transform="matrix(10.909754,0,0,-10.909318,82.77426,22.93106)"/>
<use data-text="8" xlink:href="#font_2_9" transform="matrix(10.909754,0,0,-10.909318,94.27313,22.93106)"/>
<use data-text="c" xlink:href="#font_1_43" transform="matrix(10.909754,0,0,-10.909318,1.2033844,36.90334)"/>
<use data-text="o" xlink:href="#font_1_81" transform="matrix(10.909754,0,0,-10.909318,6.0473177,36.90334)"/>
<use data-text="n" xlink:href="#font_1_77" transform="matrix(10.909754,0,0,-10.909318,11.502182,36.90334)"/>
<use data-text="c" xlink:href="#font_1_43" transform="matrix(10.909754,0,0,-10.909318,17.568009,36.90334)"/>
<use data-text="e" xlink:href="#font_1_50" transform="matrix(10.909754,0,0,-10.909318,22.411942,36.90334)"/>
<use data-text="n" xlink:href="#font_1_77" transform="matrix(10.909754,0,0,-10.909318,27.255875,36.90334)"/>
<use data-text="t" xlink:href="#font_1_105" transform="matrix(10.909754,0,0,-10.909318,33.016237,36.90334)"/>
<use data-text="r" xlink:href="#font_1_96" transform="matrix(10.909754,0,0,-10.909318,37.260118,36.90334)"/>
<use data-text="a" xlink:href="#font_1_28" transform="matrix(10.909754,0,0,-10.909318,41.536745,36.90334)"/>
<use data-text="t" xlink:href="#font_1_105" transform="matrix(10.909754,0,0,-10.909318,46.991624,36.90334)"/>
<use data-text="i" xlink:href="#font_1_66" transform="matrix(10.909754,0,0,-10.909318,51.235506,36.90334)"/>
<use data-text="o" xlink:href="#font_1_81" transform="matrix(10.909754,0,0,-10.909318,54.268419,36.90334)"/>
<use data-text="n" xlink:href="#font_1_77" transform="matrix(10.909754,0,0,-10.909318,59.723299,36.90334)"/>
<use data-text="=" xlink:href="#font_2_11" transform="matrix(10.909754,0,0,-10.909318,69.42148,36.90334)"/>
<use data-text="0" xlink:href="#font_2_2" transform="matrix(10.909754,0,0,-10.909318,80.92035,36.90334)"/>
<use data-text="." xlink:href="#font_3_1" transform="matrix(10.909754,0,0,-10.909318,86.39249,36.90334)"/>
<use data-text="5" xlink:href="#font_2_6" transform="matrix(10.909754,0,0,-10.909318,89.42268,36.90334)"/>
<use data-text="0" xlink:href="#font_2_2" transform="matrix(10.909754,0,0,-10.909318,94.87755,36.90334)"/>
<use data-text="a" xlink:href="#font_1_28" transform="matrix(10.909754,0,0,-10.909318,10.917969,51.27863)"/>
<use data-text="m" xlink:href="#font_1_75" transform="matrix(10.909754,0,0,-10.909318,16.372834,51.27863)"/>
<use data-text="o" xlink:href="#font_1_81" transform="matrix(10.909754,0,0,-10.909318,25.460663,51.27863)"/>
<use data-text="u" xlink:href="#font_1_109" transform="matrix(10.909754,0,0,-10.909318,30.915528,51.27863)"/>
<use data-text="n" xlink:href="#font_1_77" transform="matrix(10.909754,0,0,-10.909318,36.981355,51.27863)"/>
<use data-text="t" xlink:href="#font_1_105" transform="matrix(10.909754,0,0,-10.909318,42.741716,51.27863)"/>
<use data-text="a" xlink:href="#font_1_28" transform="matrix(10.909754,0,0,-10.909318,50.60765,51.27863)"/>
<use data-text="c" xlink:href="#font_1_43" transform="matrix(10.909754,0,0,-10.909318,56.062517,51.27863)"/>
<use data-text="i" xlink:href="#font_1_66" transform="matrix(10.909754,0,0,-10.909318,60.90645,51.27863)"/>
<use data-text="d" xlink:href="#font_1_47" transform="matrix(10.909754,0,0,-10.909318,63.93936,51.27863)"/>
<use data-text="=" xlink:href="#font_2_11" transform="matrix(10.909754,0,0,-10.909318,73.64873,51.27863)"/>
<use data-text="4" xlink:href="#font_2_5" transform="matrix(10.909754,0,0,-10.909318,85.1476,51.27863)"/>
<use data-text="a" xlink:href="#font_1_28" transform="matrix(10.909754,0,0,-10.909318,225.85186,22.93106)"/>
<use data-text="m" xlink:href="#font_1_75" transform="matrix(10.909754,0,0,-10.909318,231.30672,22.93106)"/>
<use data-text="o" xlink:href="#font_1_81" transform="matrix(10.909754,0,0,-10.909318,240.39455,22.93106)"/>
<use data-text="u" xlink:href="#font_1_109" transform="matrix(10.909754,0,0,-10.909318,245.84941,22.93106)"/>
<use data-text="n" xlink:href="#font_1_77" transform="matrix(10.909754,0,0,-10.909318,251.91524,22.93106)"/>
<use data-text="t" xlink:href="#font_1_105" transform="matrix(10.909754,0,0,-10.909318,257.6756,22.93106)"/>
<use data-text="s" xlink:href="#font_1_98" transform="matrix(10.909754,0,0,-10.909318,265.54154,22.93106)"/>
<use data-text="o" xlink:href="#font_1_81" transform="matrix(10.909754,0,0,-10.909318,269.83998,22.93106)"/>
<use data-text="l" xlink:href="#font_1_72" transform="matrix(10.909754,0,0,-10.909318,275.29484,22.93106)"/>
<use data-text="u" xlink:href="#font_1_109" transform="matrix(10.909754,0,0,-10.909318,278.32777,22.93106)"/>
<use data-text="t" xlink:href="#font_1_105" transform="matrix(10.909754,0,0,-10.909318,284.3936,22.93106)"/>
<use data-text="i" xlink:href="#font_1_66" transform="matrix(10.909754,0,0,-10.909318,288.63746,22.93106)"/>
<use data-text="o" xlink:href="#font_1_81" transform="matrix(10.909754,0,0,-10.909318,291.67039,22.93106)"/>
<use data-text="n" xlink:href="#font_1_77" transform="matrix(10.909754,0,0,-10.909318,297.12525,22.93106)"/>
<use data-text="=" xlink:href="#font_2_11" transform="matrix(10.909754,0,0,-10.909318,306.8347,22.93106)"/>
<use data-text="1" xlink:href="#font_2_3" transform="matrix(10.909754,0,0,-10.909318,318.33357,22.93106)"/>
<use data-text="2" xlink:href="#font_2_4" transform="matrix(10.909754,0,0,-10.909318,323.78846,22.93106)"/>
<use data-text="c" xlink:href="#font_1_43" transform="matrix(10.909754,0,0,-10.909318,227.99198,36.90334)"/>
<use data-text="o" xlink:href="#font_1_81" transform="matrix(10.909754,0,0,-10.909318,232.8359,36.90334)"/>
<use data-text="n" xlink:href="#font_1_77" transform="matrix(10.909754,0,0,-10.909318,238.29077,36.90334)"/>
<use data-text="c" xlink:href="#font_1_43" transform="matrix(10.909754,0,0,-10.909318,244.3566,36.90334)"/>
<use data-text="e" xlink:href="#font_1_50" transform="matrix(10.909754,0,0,-10.909318,249.20053,36.90334)"/>
<use data-text="n" xlink:href="#font_1_77" transform="matrix(10.909754,0,0,-10.909318,254.04447,36.90334)"/>
<use data-text="t" xlink:href="#font_1_105" transform="matrix(10.909754,0,0,-10.909318,259.8048,36.90334)"/>
<use data-text="r" xlink:href="#font_1_96" transform="matrix(10.909754,0,0,-10.909318,264.0487,36.90334)"/>
<use data-text="a" xlink:href="#font_1_28" transform="matrix(10.909754,0,0,-10.909318,268.32533,36.90334)"/>
<use data-text="t" xlink:href="#font_1_105" transform="matrix(10.909754,0,0,-10.909318,273.7802,36.90334)"/>
<use data-text="i" xlink:href="#font_1_66" transform="matrix(10.909754,0,0,-10.909318,278.0241,36.90334)"/>
<use data-text="o" xlink:href="#font_1_81" transform="matrix(10.909754,0,0,-10.909318,281.057,36.90334)"/>
<use data-text="n" xlink:href="#font_1_77" transform="matrix(10.909754,0,0,-10.909318,286.5119,36.90334)"/>
<use data-text="=" xlink:href="#font_2_11" transform="matrix(10.909754,0,0,-10.909318,296.21009,36.90334)"/>
<use data-text="0" xlink:href="#font_2_2" transform="matrix(10.909754,0,0,-10.909318,307.70893,36.90334)"/>
<use data-text="." xlink:href="#font_3_1" transform="matrix(10.909754,0,0,-10.909318,313.1811,36.90334)"/>
<use data-text="7" xlink:href="#font_2_8" transform="matrix(10.909754,0,0,-10.909318,316.21128,36.90334)"/>
<use data-text="5" xlink:href="#font_2_6" transform="matrix(10.909754,0,0,-10.909318,321.66615,36.90334)"/>
<use data-text="a" xlink:href="#font_1_28" transform="matrix(10.909754,0,0,-10.909318,237.70557,51.27863)"/>
<use data-text="m" xlink:href="#font_1_75" transform="matrix(10.909754,0,0,-10.909318,243.16043,51.27863)"/>
<use data-text="o" xlink:href="#font_1_81" transform="matrix(10.909754,0,0,-10.909318,252.24826,51.27863)"/>
<use data-text="u" xlink:href="#font_1_109" transform="matrix(10.909754,0,0,-10.909318,257.70314,51.27863)"/>
<use data-text="n" xlink:href="#font_1_77" transform="matrix(10.909754,0,0,-10.909318,263.76896,51.27863)"/>
<use data-text="t" xlink:href="#font_1_105" transform="matrix(10.909754,0,0,-10.909318,269.5293,51.27863)"/>
<use data-text="a" xlink:href="#font_1_28" transform="matrix(10.909754,0,0,-10.909318,277.39524,51.27863)"/>
<use data-text="c" xlink:href="#font_1_43" transform="matrix(10.909754,0,0,-10.909318,282.8501,51.27863)"/>
<use data-text="i" xlink:href="#font_1_66" transform="matrix(10.909754,0,0,-10.909318,287.69404,51.27863)"/>
<use data-text="d" xlink:href="#font_1_47" transform="matrix(10.909754,0,0,-10.909318,290.72697,51.27863)"/>
<use data-text="=" xlink:href="#font_2_11" transform="matrix(10.909754,0,0,-10.909318,300.4363,51.27863)"/>
<use data-text="9" xlink:href="#font_2_10" transform="matrix(10.909754,0,0,-10.909318,311.93519,51.27863)"/>
<use data-text="a" xlink:href="#font_1_28" transform="matrix(10.909754,0,0,-10.909318,103.063488,164.2739)"/>
<use data-text="m" xlink:href="#font_1_75" transform="matrix(10.909754,0,0,-10.909318,108.51835,164.2739)"/>
<use data-text="o" xlink:href="#font_1_81" transform="matrix(10.909754,0,0,-10.909318,117.60618,164.2739)"/>
<use data-text="u" xlink:href="#font_1_109" transform="matrix(10.909754,0,0,-10.909318,123.06104,164.2739)"/>
<use data-text="n" xlink:href="#font_1_77" transform="matrix(10.909754,0,0,-10.909318,129.12686,164.2739)"/>
<use data-text="t" xlink:href="#font_1_105" transform="matrix(10.909754,0,0,-10.909318,134.88724,164.2739)"/>
<use data-text="s" xlink:href="#font_1_98" transform="matrix(10.909754,0,0,-10.909318,142.75318,164.2739)"/>
<use data-text="o" xlink:href="#font_1_81" transform="matrix(10.909754,0,0,-10.909318,147.0516,164.2739)"/>
<use data-text="l" xlink:href="#font_1_72" transform="matrix(10.909754,0,0,-10.909318,152.50647,164.2739)"/>
<use data-text="u" xlink:href="#font_1_109" transform="matrix(10.909754,0,0,-10.909318,155.5394,164.2739)"/>
<use data-text="t" xlink:href="#font_1_105" transform="matrix(10.909754,0,0,-10.909318,161.60523,164.2739)"/>
<use data-text="i" xlink:href="#font_1_66" transform="matrix(10.909754,0,0,-10.909318,165.84909,164.2739)"/>
<use data-text="o" xlink:href="#font_1_81" transform="matrix(10.909754,0,0,-10.909318,168.88202,164.2739)"/>
<use data-text="n" xlink:href="#font_1_77" transform="matrix(10.909754,0,0,-10.909318,174.33689,164.2739)"/>
<use data-text="=" xlink:href="#font_2_11" transform="matrix(10.909754,0,0,-10.909318,184.04633,164.2739)"/>
<use data-text="8" xlink:href="#font_2_9" transform="matrix(10.909754,0,0,-10.909318,195.5452,164.2739)"/>
<use data-text="+" xlink:href="#font_2_1" transform="matrix(10.909754,0,0,-10.909318,203.42206,164.2739)"/>
<use data-text="1" xlink:href="#font_2_3" transform="matrix(10.909754,0,0,-10.909318,214.33182,164.2739)"/>
<use data-text="2" xlink:href="#font_2_4" transform="matrix(10.909754,0,0,-10.909318,219.78672,164.2739)"/>
<use data-text="c" xlink:href="#font_1_43" transform="matrix(10.909754,0,0,-10.909318,114.598178,178.64019)"/>
<use data-text="o" xlink:href="#font_1_81" transform="matrix(10.909754,0,0,-10.909318,119.44211,178.64019)"/>
<use data-text="n" xlink:href="#font_1_77" transform="matrix(10.909754,0,0,-10.909318,124.89697,178.64019)"/>
<use data-text="c" xlink:href="#font_1_43" transform="matrix(10.909754,0,0,-10.909318,130.9628,178.64019)"/>
<use data-text="e" xlink:href="#font_1_50" transform="matrix(10.909754,0,0,-10.909318,135.80673,178.64019)"/>
<use data-text="n" xlink:href="#font_1_77" transform="matrix(10.909754,0,0,-10.909318,140.65067,178.64019)"/>
<use data-text="t" xlink:href="#font_1_105" transform="matrix(10.909754,0,0,-10.909318,146.41103,178.64019)"/>
<use data-text="r" xlink:href="#font_1_96" transform="matrix(10.909754,0,0,-10.909318,150.6549,178.64019)"/>
<use data-text="a" xlink:href="#font_1_28" transform="matrix(10.909754,0,0,-10.909318,154.93154,178.64019)"/>
<use data-text="t" xlink:href="#font_1_105" transform="matrix(10.909754,0,0,-10.909318,160.38642,178.64019)"/>
<use data-text="i" xlink:href="#font_1_66" transform="matrix(10.909754,0,0,-10.909318,164.6303,178.64019)"/>
<use data-text="o" xlink:href="#font_1_81" transform="matrix(10.909754,0,0,-10.909318,167.66321,178.64019)"/>
<use data-text="n" xlink:href="#font_1_77" transform="matrix(10.909754,0,0,-10.909318,173.11809,178.64019)"/>
<use data-text="=" xlink:href="#font_2_11" transform="matrix(10.909754,0,0,-10.909318,182.81627,178.64019)"/>
<use data-text="0" xlink:href="#font_2_2" transform="matrix(10.909754,0,0,-10.909318,194.31514,178.64019)"/>
<use data-text="." xlink:href="#font_3_1" transform="matrix(10.909754,0,0,-10.909318,199.78728,178.64019)"/>
<use data-text="6" xlink:href="#font_2_7" transform="matrix(10.909754,0,0,-10.909318,202.81748,178.64019)"/>
<use data-text="5" xlink:href="#font_2_6" transform="matrix(10.909754,0,0,-10.909318,208.27234,178.64019)"/>
<use data-text="a" xlink:href="#font_1_28" transform="matrix(10.909754,0,0,-10.909318,114.91719,192.62146)"/>
<use data-text="m" xlink:href="#font_1_75" transform="matrix(10.909754,0,0,-10.909318,120.372058,192.62146)"/>
<use data-text="o" xlink:href="#font_1_81" transform="matrix(10.909754,0,0,-10.909318,129.45989,192.62146)"/>
<use data-text="u" xlink:href="#font_1_109" transform="matrix(10.909754,0,0,-10.909318,134.91475,192.62146)"/>
<use data-text="n" xlink:href="#font_1_77" transform="matrix(10.909754,0,0,-10.909318,140.98058,192.62146)"/>
<use data-text="t" xlink:href="#font_1_105" transform="matrix(10.909754,0,0,-10.909318,146.74094,192.62146)"/>
<use data-text="a" xlink:href="#font_1_28" transform="matrix(10.909754,0,0,-10.909318,154.60688,192.62146)"/>
<use data-text="c" xlink:href="#font_1_43" transform="matrix(10.909754,0,0,-10.909318,160.06174,192.62146)"/>
<use data-text="i" xlink:href="#font_1_66" transform="matrix(10.909754,0,0,-10.909318,164.90567,192.62146)"/>
<use data-text="d" xlink:href="#font_1_47" transform="matrix(10.909754,0,0,-10.909318,167.93859,192.62146)"/>
<use data-text="=" xlink:href="#font_2_11" transform="matrix(10.909754,0,0,-10.909318,177.64795,192.62146)"/>
<use data-text="4" xlink:href="#font_2_5" transform="matrix(10.909754,0,0,-10.909318,189.14682,192.62146)"/>
<use data-text="+" xlink:href="#font_2_1" transform="matrix(10.909754,0,0,-10.909318,197.02365,192.62146)"/>
<use data-text="9" xlink:href="#font_2_10" transform="matrix(10.909754,0,0,-10.909318,207.93343,192.62146)"/>
</svg>
