<svg xmlns="http://www.w3.org/2000/svg" xmlns:xlink="http://www.w3.org/1999/xlink" xmlns:inkscape="http://www.inkscape.org/namespaces/inkscape" version="1.1" width="118" height="118" viewBox="0 0 118 118">
<path transform="matrix(1,0,0,-1.00005,58.925,58.907098)" d="M0 0H56.69362C56.69362 17.24873 48.83005 33.57013 35.34526 44.32301Z" fill="#4d4dff"/>
<path transform="matrix(1,0,0,-1.00005,58.925,58.907098)" stroke-width="1.59404" stroke-linecap="butt" stroke-miterlimit="10" stroke-linejoin="miter" fill="none" stroke="#000000" d="M0 0H56.69362C56.69362 17.24873 48.83005 33.57013 35.34526 44.32301Z"/>
<path transform="matrix(1,0,0,-1.00005,58.925,58.907098)" d="M0 0 35.34526 44.32301C21.86047 55.07591 4.20166 59.10802-12.61365 55.27055Z" fill="#4d4dff"/>
<path transform="matrix(1,0,0,-1.00005,58.925,58.907098)" stroke-width="1.59404" stroke-linecap="butt" stroke-miterlimit="10" stroke-linejoin="miter" fill="none" stroke="#000000" d="M0 0 35.34526 44.32301C21.86047 55.07591 4.20166 59.10802-12.61365 55.27055Z"/>
<path transform="matrix(1,0,0,-1.00005,58.925,58.907098)" d="M0 0-12.61365 55.27055C-29.42899 51.43309-43.59377 40.13605-51.07666 24.59668Z" fill="#e5e6e5"/>
<path transform="matrix(1,0,0,-1.00005,58.925,58.907098)" stroke-width="1.59404" stroke-linecap="butt" stroke-miterlimit="10" stroke-linejoin="miter" fill="none" stroke="#000000" d="M0 0-12.61365 55.27055C-29.42899 51.43309-43.59377 40.13605-51.07666 24.59668Z"/>
<path transform="matrix(1,0,0,-1.00005,58.925,58.907098)" d="M0 0-51.07666 24.59668C-58.55957 9.05733-58.55957-9.05733-51.07666-24.59668Z" fill="#e5e6e5"/>
<path transform="matrix(1,0,0,-1.00005,58.925,58.907098)" stroke-width="1.59404" stroke-linecap="butt" stroke-miterlimit="10" stroke-linejoin="miter" fill="none" stroke="#000000" d="M0 0-51.07666 24.59668C-58.55957 9.05733-58.55957-9.05733-51.07666-24.59668Z"/>
<path transform="matrix(1,0,0,-1.00005,58.925,58.907098)" d="M0 0-51.07666-24.59668C-43.59377-40.13605-29.42986-51.43222-12.61452-55.26968Z" fill="#e5e6e5"/>
<path transform="matrix(1,0,0,-1.00005,58.925,58.907098)" stroke-width="1.59404" stroke-linecap="butt" stroke-miterlimit="10" stroke-linejoin="miter" fill="none" stroke="#000000" d="M0 0-51.07666-24.59668C-43.59377-40.13605-29.42986-51.43222-12.61452-55.26968Z"/>
<path transform="matrix(1,0,0,-1.00005,58.925,58.907098)" d="M0 0-12.61452-55.26968C4.2008-59.10715 21.8622-55.07591 35.34613-44.32214Z" fill="#e5e6e5"/>
<path transform="matrix(1,0,0,-1.00005,58.925,58.907098)" stroke-width="1.59404" stroke-linecap="butt" stroke-miterlimit="10" stroke-linejoin="miter" fill="none" stroke="#000000" d="M0 0-12.61452-55.26968C4.2008-59.10715 21.8622-55.07591 35.34613-44.32214Z"/>
<path transform="matrix(1,0,0,-1.00005,58.925,58.907098)" d="M0 0 35.34613-44.32214C48.83005-33.56839 56.69362-17.24873 56.69362 0Z" fill="#e5e6e5"/>
<path transform="matrix(1,0,0,-1.00005,58.925,58.907098)" stroke-width="1.59404" stroke-linecap="butt" stroke-miterlimit="10" stroke-linejoin="miter" fill="none" stroke="#000000" d="M0 0 35.34613-44.32214C48.83005-33.56839 56.69362-17.24873 56.69362 0Z"/>
</svg>
