<svg xmlns="http://www.w3.org/2000/svg" xmlns:xlink="http://www.w3.org/1999/xlink" xmlns:inkscape="http://www.inkscape.org/namespaces/inkscape" version="1.1" width="118" height="118" viewBox="0 0 118 118">
<path transform="matrix(1.00002,0,0,-1.00003,59.0602,59.491189)" d="M0 0H56.69362C56.69362 31.31142 31.31142 56.69362 0 56.69362Z" fill="#4d4dff"/>
<path transform="matrix(1.00002,0,0,-1.00003,59.0602,59.491189)" stroke-width="1.59404" stroke-linecap="butt" stroke-miterlimit="10" stroke-linejoin="miter" fill="none" stroke="#000000" d="M0 0H56.69362C56.69362 31.31142 31.31142 56.69362 0 56.69362Z"/>
<path transform="matrix(1.00002,0,0,-1.00003,59.0602,59.491189)" d="M0 0V56.69362C-31.31142 56.69362-56.69362 31.31142-56.69362 0Z" fill="#4d4dff"/>
<path transform="matrix(1.00002,0,0,-1.00003,59.0602,59.491189)" stroke-width="1.59404" stroke-linecap="butt" stroke-miterlimit="10" stroke-linejoin="miter" fill="none" stroke="#000000" d="M0 0V56.69362C-31.31142 56.69362-56.69362 31.31142-56.69362 0Z"/>
<path transform="matrix(1.00002,0,0,-1.00003,59.0602,59.491189)" d="M0 0H-56.69362C-56.69362-31.31142-31.31142-56.69362 0-56.69362Z" fill="#4d4dff"/>
<path transform="matrix(1.00002,0,0,-1.00003,59.0602,59.491189)" stroke-width="1.59404" stroke-linecap="butt" stroke-miterlimit="10" stroke-linejoin="miter" fill="none" stroke="#000000" d="M0 0H-56.69362C-56.69362-31.31142-31.31142-56.69362 0-56.69362Z"/>
<path transform="matrix(1.00002,0,0,-1.00003,59.0602,59.491189)" d="M0 0V-56.69362C31.31142-56.69362 56.69362-31.31142 56.69362 0Z" fill="#e5e6e5"/>
<path transform="matrix(1.00002,0,0,-1.00003,59.0602,59.491189)" stroke-width="1.59404" stroke-linecap="butt" stroke-miterlimit="10" stroke-linejoin="miter" fill="none" stroke="#000000" d="M0 0V-56.69362C31.31142-56.69362 56.69362-31.31142 56.69362 0Z"/>
</svg>
