<svg xmlns="http://www.w3.org/2000/svg" xmlns:xlink="http://www.w3.org/1999/xlink" xmlns:inkscape="http://www.inkscape.org/namespaces/inkscape" version="1.1" width="217" height="46" viewBox="0 0 217 46">
<defs>
<path id="font_1_1" d="M.37298585 .37835694C.35499574 .41537477 .32598878 .4423828 .2809906 .4423828 .1639862 .4423828 .039993287 .29533387 .039993287 .14929199 .039993287 .055267335 .09498596-.0107421879 .17298889-.0107421879 .19299317-.0107421879 .24299622-.0067443849 .30299378 .06427002 .31098939 .022247315 .34599305-.0107421879 .3939972-.0107421879 .42900086-.0107421879 .45199586 .012252808 .46798707 .044265748 .4850006 .08027649 .49798585 .14129639 .49798585 .14329529 .49798585 .1532898 .4889984 .1532898 .48599244 .1532898 .47599793 .1532898 .47499085 .14929199 .47200013 .13528443 .45498658 .07026672 .43699647 .011245728 .3959961 .011245728 .36898805 .011245728 .3659973 .037261964 .3659973 .057266237 .3659973 .07926941 .36799623 .08728027 .3789978 .13128662 .3899994 .17329407 .3919983 .18330384 .40098573 .22131348L.43699647 .36135865C.44400025 .38935853 .44400025 .39135743 .44400025 .39537049 .44400025 .41236878 .43199159 .42237855 .4149933 .42237855 .3909912 .42237855 .37599183 .4003601 .37298585 .37835694M.30799867 .119277957C.30299378 .10127258 .30299378 .09927368 .28799439 .08227539 .24398804 .027252198 .20298767 .011245728 .1749878 .011245728 .125 .011245728 .11099243 .06626892 .11099243 .105285648 .11099243 .1552887 .14299011 .27833558 .1659851 .32434083 .19699097 .38336183 .24198914 .42037965 .28199769 .42037965 .34700013 .42037965 .36099244 .3383484 .36099244 .33235169 .36099244 .32633973 .35899354 .32034303 .35798646 .31533814L.30799867 .119277957Z"/>
<path id="font_1_2" d="M.23899842 .68333438C.23899842 .6843262 .23899842 .69433596 .22599793 .69433596 .20298767 .69433596 .12998963 .6863251 .10398865 .6843262 .09599304 .68333438 .084991458 .6823273 .084991458 .6643219 .084991458 .6523285 .09399414 .6523285 .10899353 .6523285 .15699768 .6523285 .15899658 .6453247 .15899658 .6353302 .15899658 .6283264 .1499939 .5943451 .14498902 .573349L.06298828 .24731446C.050994874 .1973114 .04699707 .18130493 .04699707 .14628601 .04699707 .05126953 .099990848-.0107421879 .17399597-.0107421879 .2919922-.0107421879 .4149933 .1382904 .4149933 .28233338 .4149933 .37335206 .3619995 .4423828 .28199769 .4423828 .23599243 .4423828 .19499207 .41337586 .16499329 .38235475L.23899842 .68333438M.14498902 .30534364C.15098572 .3273468 .15098572 .3293457 .1599884 .3403473 .20899964 .405365 .2539978 .42037965 .27999879 .42037965 .31599427 .42037965 .34298707 .3903656 .34298707 .32633973 .34298707 .26733399 .30999757 .15229798 .2919922 .11428833 .25898744 .04725647 .21299744 .011245728 .17399597 .011245728 .13999939 .011245728 .10699463 .038253786 .10699463 .11227417 .10699463 .13128662 .10699463 .15029907 .12298584 .21331787L.14498902 .30534364Z"/>
<path id="font_1_3" d="M.3959961 .37998963C.37998963 .37998963 .3659973 .37998963 .35198976 .36598207 .33599855 .35098268 .33399964 .33398438 .33399964 .3269806 .33399964 .30297853 .35198976 .2919922 .37098695 .2919922 .3999939 .2919922 .4269867 .315979 .4269867 .35598756 .4269867 .40522767 .37998963 .4423828 .30899049 .4423828 .17399597 .4423828 .040985109 .2989807 .040985109 .15811157 .040985109 .06819153 .09899902-.0107421879 .20298767-.0107421879 .34599305-.0107421879 .42999269 .09516907 .42999269 .107162479 .42999269 .11315918 .42399598 .120147708 .41799928 .120147708 .41299439 .120147708 .41099549 .1181488 .40499879 .1101532 .32598878 .011245728 .21699524 .011245728 .20498657 .011245728 .14199829 .011245728 .114990238 .06021118 .114990238 .120147708 .114990238 .1611023 .1349945 .25801087 .16899109 .31999208 .19999695 .37698365 .25498963 .42037965 .30999757 .42037965 .34399415 .42037965 .38198854 .40724183 .3959961 .37998963Z"/>
</defs>
<path transform="matrix(1.00003,0,0,-1.00005,3.5621367,2.9932023)" stroke-width=".79701" stroke-linecap="butt" stroke-miterlimit="10" stroke-linejoin="miter" fill="none" stroke="#000000" d="M0 0H85.04042"/>
<path transform="matrix(1.00003,0,0,-1.00005,3.5621367,2.9932023)" d="M1.99255 0C1.99255 1.10046 1.10046 1.99255 0 1.99255-1.10046 1.99255-1.99255 1.10046-1.99255 0-1.99255-1.10046-1.10046-1.99255 0-1.99255 1.10046-1.99255 1.99255-1.10046 1.99255 0ZM0 0"/>
<path transform="matrix(1.00003,0,0,-1.00005,3.5621367,2.9932023)" d="M87.03297 0C87.03297 1.10046 86.1409 1.99255 85.04042 1.99255 83.93996 1.99255 83.04787 1.10046 83.04787 0 83.04787-1.10046 83.93996-1.99255 85.04042-1.99255 86.1409-1.99255 87.03297-1.10046 87.03297 0ZM85.04042 0"/>
<use data-text="a" xlink:href="#font_1_1" transform="matrix(10.909428,0,0,-10.909644,43.20033,13.846745)"/>
<path transform="matrix(1.00003,0,0,-1.00005,3.5621367,2.9932023)" stroke-width=".79701" stroke-linecap="butt" stroke-miterlimit="10" stroke-linejoin="miter" fill="none" stroke="#000000" d="M90.7097 0H147.40332"/>
<path transform="matrix(1.00003,0,0,-1.00005,3.5621367,2.9932023)" d="M92.70226 0C92.70226 1.10046 91.81017 1.99255 90.7097 1.99255 89.60922 1.99255 88.71715 1.10046 88.71715 0 88.71715-1.10046 89.60922-1.99255 90.7097-1.99255 91.81017-1.99255 92.70226-1.10046 92.70226 0ZM90.7097 0"/>
<path transform="matrix(1.00003,0,0,-1.00005,3.5621367,2.9932023)" d="M149.39588 0C149.39588 1.10046 148.50379 1.99255 147.40332 1.99255 146.30284 1.99255 145.41077 1.10046 145.41077 0 145.41077-1.10046 146.30284-1.99255 147.40332-1.99255 148.50379-1.99255 149.39588-1.10046 149.39588 0ZM147.40332 0"/>
<use data-text="b" xlink:href="#font_1_2" transform="matrix(10.909428,0,0,-10.909644,120.28165,15.285816)"/>
<path transform="matrix(1.00003,0,0,-1.00005,3.5621367,2.9932023)" stroke-width=".79701" stroke-linecap="butt" stroke-miterlimit="10" stroke-linejoin="miter" fill="none" stroke="#000000" d="M153.07259 0H209.7662"/>
<path transform="matrix(1.00003,0,0,-1.00005,3.5621367,2.9932023)" d="M155.06514 0C155.06514 1.10046 154.17307 1.99255 153.07259 1.99255 151.97212 1.99255 151.08003 1.10046 151.08003 0 151.08003-1.10046 151.97212-1.99255 153.07259-1.99255 154.17307-1.99255 155.06514-1.10046 155.06514 0ZM153.07259 0"/>
<path transform="matrix(1.00003,0,0,-1.00005,3.5621367,2.9932023)" d="M211.75876 0C211.75876 1.10046 210.86669 1.99255 209.7662 1.99255 208.66574 1.99255 207.77365 1.10046 207.77365 0 207.77365-1.10046 208.66574-1.99255 209.7662-1.99255 210.86669-1.99255 211.75876-1.10046 211.75876 0ZM209.7662 0"/>
<use data-text="c" xlink:href="#font_1_3" transform="matrix(10.909428,0,0,-10.909644,182.62653,13.846745)"/>
<path transform="matrix(1.00003,0,0,-1.00005,3.5621367,2.9932023)" stroke-width=".79701" stroke-linecap="butt" stroke-miterlimit="10" stroke-linejoin="miter" fill="none" stroke="#000000" d="M0-28.3468H85.04042"/>
<path transform="matrix(1.00003,0,0,-1.00005,3.5621367,2.9932023)" d="M1.99255-28.3468C1.99255-27.24634 1.10046-26.35425 0-26.35425-1.10046-26.35425-1.99255-27.24634-1.99255-28.3468-1.99255-29.44728-1.10046-30.33936 0-30.33936 1.10046-30.33936 1.99255-29.44728 1.99255-28.3468ZM0-28.3468"/>
<path transform="matrix(1.00003,0,0,-1.00005,3.5621367,2.9932023)" d="M87.03297-28.3468C87.03297-27.24634 86.1409-26.35425 85.04042-26.35425 83.93996-26.35425 83.04787-27.24634 83.04787-28.3468 83.04787-29.44728 83.93996-30.33936 85.04042-30.33936 86.1409-30.33936 87.03297-29.44728 87.03297-28.3468ZM85.04042-28.3468"/>
<use data-text="a" xlink:href="#font_1_1" transform="matrix(10.909428,0,0,-10.909644,43.20033,42.19416)"/>
<path transform="matrix(1.00003,0,0,-1.00005,3.5621367,2.9932023)" stroke-width=".79701" stroke-linecap="butt" stroke-miterlimit="10" stroke-linejoin="miter" fill="none" stroke="#000000" d="M90.7097-28.3468H147.40332"/>
<path transform="matrix(1.00003,0,0,-1.00005,3.5621367,2.9932023)" d="M92.70226-28.3468C92.70226-27.24634 91.81017-26.35425 90.7097-26.35425 89.60922-26.35425 88.71715-27.24634 88.71715-28.3468 88.71715-29.44728 89.60922-30.33936 90.7097-30.33936 91.81017-30.33936 92.70226-29.44728 92.70226-28.3468ZM90.7097-28.3468"/>
<path transform="matrix(1.00003,0,0,-1.00005,3.5621367,2.9932023)" d="M149.39588-28.3468C149.39588-27.24634 148.50379-26.35425 147.40332-26.35425 146.30284-26.35425 145.41077-27.24634 145.41077-28.3468 145.41077-29.44728 146.30284-30.33936 147.40332-30.33936 148.50379-30.33936 149.39588-29.44728 149.39588-28.3468ZM147.40332-28.3468"/>
<use data-text="b" xlink:href="#font_1_2" transform="matrix(10.909428,0,0,-10.909644,120.28165,43.63423)"/>
<path transform="matrix(1.00003,0,0,-1.00005,3.5621367,2.9932023)" stroke-width=".79701" stroke-linecap="butt" stroke-miterlimit="10" stroke-linejoin="miter" fill="none" stroke="#000000" d="M153.07259-28.3468H209.7662"/>
<path transform="matrix(1.00003,0,0,-1.00005,3.5621367,2.9932023)" d="M155.06514-28.3468C155.06514-27.24634 154.17307-26.35425 153.07259-26.35425 151.97212-26.35425 151.08003-27.24634 151.08003-28.3468 151.08003-29.44728 151.97212-30.33936 153.07259-30.33936 154.17307-30.33936 155.06514-29.44728 155.06514-28.3468ZM153.07259-28.3468"/>
<path transform="matrix(1.00003,0,0,-1.00005,3.5621367,2.9932023)" d="M211.75876-28.3468C211.75876-27.24634 210.86669-26.35425 209.7662-26.35425 208.66574-26.35425 207.77365-27.24634 207.77365-28.3468 207.77365-29.44728 208.66574-30.33936 209.7662-30.33936 210.86669-30.33936 211.75876-29.44728 211.75876-28.3468ZM209.7662-28.3468"/>
<use data-text="c" xlink:href="#font_1_3" transform="matrix(10.909428,0,0,-10.909644,182.62653,42.19416)"/>
</svg>
