<svg xmlns="http://www.w3.org/2000/svg" xmlns:xlink="http://www.w3.org/1999/xlink" xmlns:inkscape="http://www.inkscape.org/namespaces/inkscape" version="1.1" width="118" height="117" viewBox="0 0 118 117">
<path transform="matrix(1.00005,0,0,-1,59.122407,58.49)" d="M0 0H56.69362C56.69362 31.31142 31.31142 56.69362 0 56.69362-9.94923 56.69362-19.73065 54.07242-28.3468 49.09824Z" fill="#4d4dff"/>
<path transform="matrix(1.00005,0,0,-1,59.122407,58.49)" stroke-width="1.59404" stroke-linecap="butt" stroke-miterlimit="10" stroke-linejoin="miter" fill="none" stroke="#000000" d="M0 0H56.69362C56.69362 31.31142 31.31142 56.69362 0 56.69362-9.94923 56.69362-19.73065 54.07242-28.3468 49.09824Z"/>
<path transform="matrix(1.00005,0,0,-1,59.122407,58.49)" d="M0 0-28.3468 49.09824C-55.4626 33.44296-64.75351-1.231-49.09824-28.3468-44.12405-36.96295-36.96295-44.12405-28.3468-49.09824Z" fill="#e5e6e5"/>
<path transform="matrix(1.00005,0,0,-1,59.122407,58.49)" stroke-width="1.59404" stroke-linecap="butt" stroke-miterlimit="10" stroke-linejoin="miter" fill="none" stroke="#000000" d="M0 0-28.3468 49.09824C-55.4626 33.44296-64.75351-1.231-49.09824-28.3468-44.12405-36.96295-36.96295-44.12405-28.3468-49.09824Z"/>
<path transform="matrix(1.00005,0,0,-1,59.122407,58.49)" d="M0 0-28.3468-49.09824C-1.231-64.75351 33.44296-55.4626 49.09824-28.3468 54.07242-19.73065 56.69362-9.94923 56.69362 0Z" fill="#e5e6e5"/>
<path transform="matrix(1.00005,0,0,-1,59.122407,58.49)" stroke-width="1.59404" stroke-linecap="butt" stroke-miterlimit="10" stroke-linejoin="miter" fill="none" stroke="#000000" d="M0 0-28.3468-49.09824C-1.231-64.75351 33.44296-55.4626 49.09824-28.3468 54.07242-19.73065 56.69362-9.94923 56.69362 0Z"/>
</svg>
