<svg xmlns="http://www.w3.org/2000/svg" xmlns:xlink="http://www.w3.org/1999/xlink" xmlns:inkscape="http://www.inkscape.org/namespaces/inkscape" version="1.1" width="118" height="118" viewBox="0 0 118 118">
<path transform="matrix(1.00002,0,0,-1.00003,59.0602,59.491189)" d="M0 0H56.69362C56.69362 15.03328 50.71852 29.45844 40.08847 40.08847Z" fill="#4d4dff"/>
<path transform="matrix(1.00002,0,0,-1.00003,59.0602,59.491189)" stroke-width="1.59404" stroke-linecap="butt" stroke-miterlimit="10" stroke-linejoin="miter" fill="none" stroke="#000000" d="M0 0H56.69362C56.69362 15.03328 50.71852 29.45844 40.08847 40.08847Z"/>
<path transform="matrix(1.00002,0,0,-1.00003,59.0602,59.491189)" d="M0 0 40.08847 40.08847C29.45844 50.71852 15.03328 56.69362 0 56.69362Z" fill="#4d4dff"/>
<path transform="matrix(1.00002,0,0,-1.00003,59.0602,59.491189)" stroke-width="1.59404" stroke-linecap="butt" stroke-miterlimit="10" stroke-linejoin="miter" fill="none" stroke="#000000" d="M0 0 40.08847 40.08847C29.45844 50.71852 15.03328 56.69362 0 56.69362Z"/>
<path transform="matrix(1.00002,0,0,-1.00003,59.0602,59.491189)" d="M0 0V56.69362C-15.03328 56.69362-29.45844 50.71852-40.08847 40.08847Z" fill="#4d4dff"/>
<path transform="matrix(1.00002,0,0,-1.00003,59.0602,59.491189)" stroke-width="1.59404" stroke-linecap="butt" stroke-miterlimit="10" stroke-linejoin="miter" fill="none" stroke="#000000" d="M0 0V56.69362C-15.03328 56.69362-29.45844 50.71852-40.08847 40.08847Z"/>
<path transform="matrix(1.00002,0,0,-1.00003,59.0602,59.491189)" d="M0 0-40.08847 40.08847C-50.71852 29.45844-56.69362 15.03328-56.69362 0Z" fill="#4d4dff"/>
<path transform="matrix(1.00002,0,0,-1.00003,59.0602,59.491189)" stroke-width="1.59404" stroke-linecap="butt" stroke-miterlimit="10" stroke-linejoin="miter" fill="none" stroke="#000000" d="M0 0-40.08847 40.08847C-50.71852 29.45844-56.69362 15.03328-56.69362 0Z"/>
<path transform="matrix(1.00002,0,0,-1.00003,59.0602,59.491189)" d="M0 0H-56.69362C-56.69362-15.03328-50.71852-29.45844-40.08847-40.08847Z" fill="#e5e6e5"/>
<path transform="matrix(1.00002,0,0,-1.00003,59.0602,59.491189)" stroke-width="1.59404" stroke-linecap="butt" stroke-miterlimit="10" stroke-linejoin="miter" fill="none" stroke="#000000" d="M0 0H-56.69362C-56.69362-15.03328-50.71852-29.45844-40.08847-40.08847Z"/>
<path transform="matrix(1.00002,0,0,-1.00003,59.0602,59.491189)" d="M0 0-40.08847-40.08847C-29.45844-50.71852-15.03328-56.69362 0-56.69362Z" fill="#e5e6e5"/>
<path transform="matrix(1.00002,0,0,-1.00003,59.0602,59.491189)" stroke-width="1.59404" stroke-linecap="butt" stroke-miterlimit="10" stroke-linejoin="miter" fill="none" stroke="#000000" d="M0 0-40.08847-40.08847C-29.45844-50.71852-15.03328-56.69362 0-56.69362Z"/>
<path transform="matrix(1.00002,0,0,-1.00003,59.0602,59.491189)" d="M0 0V-56.69362C15.03328-56.69362 29.45844-50.71852 40.08847-40.08847Z" fill="#e5e6e5"/>
<path transform="matrix(1.00002,0,0,-1.00003,59.0602,59.491189)" stroke-width="1.59404" stroke-linecap="butt" stroke-miterlimit="10" stroke-linejoin="miter" fill="none" stroke="#000000" d="M0 0V-56.69362C15.03328-56.69362 29.45844-50.71852 40.08847-40.08847Z"/>
<path transform="matrix(1.00002,0,0,-1.00003,59.0602,59.491189)" d="M0 0 40.08847-40.08847C50.71852-29.45844 56.69362-15.03328 56.69362 0Z" fill="#e5e6e5"/>
<path transform="matrix(1.00002,0,0,-1.00003,59.0602,59.491189)" stroke-width="1.59404" stroke-linecap="butt" stroke-miterlimit="10" stroke-linejoin="miter" fill="none" stroke="#000000" d="M0 0 40.08847-40.08847C50.71852-29.45844 56.69362-15.03328 56.69362 0Z"/>
</svg>
