<svg xmlns="http://www.w3.org/2000/svg" xmlns:xlink="http://www.w3.org/1999/xlink" xmlns:inkscape="http://www.inkscape.org/namespaces/inkscape" version="1.1" width="140" height="96" viewBox="0 0 140 96">
<path transform="matrix(1.00006,0,0,-1.00002,7.4345657,93.92351)" stroke-width=".3985" stroke-linecap="butt" stroke-miterlimit="10" stroke-linejoin="miter" fill="none" stroke="#fcfcfc" d="M-4.67299 0C-4.67299 .55023-5.11903 .99628-5.66927 .99628-6.2195 .99628-6.66554 .55023-6.66554 0-6.66554-.55023-6.2195-.99628-5.66927-.99628-5.11903-.99628-4.67299-.55023-4.67299 0ZM-5.66927 0"/>
<path transform="matrix(1.00006,0,0,-1.00002,7.4345657,93.92351)" stroke-width=".3985" stroke-linecap="butt" stroke-miterlimit="10" stroke-linejoin="miter" fill="none" stroke="#fcfcfc" d="M131.39176 0C131.39176 .55023 130.94571 .99628 130.39548 .99628 129.84525 .99628 129.3992 .55023 129.3992 0 129.3992-.55023 129.84525-.99628 130.39548-.99628 130.94571-.99628 131.39176-.55023 131.39176 0ZM130.39548 0"/>
<path transform="matrix(1.00006,0,0,-1.00002,7.4345657,93.92351)" stroke-width="1.59404" stroke-linecap="butt" stroke-miterlimit="10" stroke-linejoin="miter" fill="none" stroke="#000000" d="M0 0H120.47392"/>
<path transform="matrix(1.00006,0,0,-1.00002,7.4345657,93.92351)" stroke-width="1.59404" stroke-linecap="butt" stroke-miterlimit="10" stroke-linejoin="miter" fill="none" stroke="#000000" d="M0 0V92.1271"/>
<path transform="matrix(1.00006,0,0,-1.00002,7.4345657,93.92351)" stroke-width=".3985" stroke-linecap="butt" stroke-dasharray=".3985,1.99255" stroke-miterlimit="10" stroke-linejoin="miter" fill="none" stroke="#000000" d="M28.3468 0V92.1271"/>
<path transform="matrix(1.00006,0,0,-1.00002,7.4345657,93.92351)" stroke-width=".3985" stroke-linecap="butt" stroke-dasharray=".3985,1.99255" stroke-miterlimit="10" stroke-linejoin="miter" fill="none" stroke="#000000" d="M56.69362 0V92.1271"/>
<path transform="matrix(1.00006,0,0,-1.00002,7.4345657,93.92351)" stroke-width=".3985" stroke-linecap="butt" stroke-dasharray=".3985,1.99255" stroke-miterlimit="10" stroke-linejoin="miter" fill="none" stroke="#000000" d="M85.04042 0V92.1271"/>
<path transform="matrix(1.00006,0,0,-1.00002,7.4345657,93.92351)" stroke-width=".3985" stroke-linecap="butt" stroke-dasharray=".3985,1.99255" stroke-miterlimit="10" stroke-linejoin="miter" fill="none" stroke="#000000" d="M113.38724 0V92.1271"/>
<path transform="matrix(1.00006,0,0,-1.00002,7.4345657,93.92351)" stroke-width=".3985" stroke-linecap="butt" stroke-dasharray=".3985,1.99255" stroke-miterlimit="10" stroke-linejoin="miter" fill="none" stroke="#000000" d="M0 28.3468H120.47392"/>
<path transform="matrix(1.00006,0,0,-1.00002,7.4345657,93.92351)" stroke-width=".3985" stroke-linecap="butt" stroke-dasharray=".3985,1.99255" stroke-miterlimit="10" stroke-linejoin="miter" fill="none" stroke="#000000" d="M0 56.69362H120.47392"/>
<path transform="matrix(1.00006,0,0,-1.00002,7.4345657,93.92351)" stroke-width=".3985" stroke-linecap="butt" stroke-dasharray=".3985,1.99255" stroke-miterlimit="10" stroke-linejoin="miter" fill="none" stroke="#000000" d="M0 85.04042H120.47392"/>
<g>
<path transform="matrix(1.00006,0,0,-1.00002,7.4345657,93.92351)" d="M0 0V56.69362H85.04042V0ZM85.04042 56.69362" fill="#4d4dff" fill-opacity=".5"/>
<path transform="matrix(1.00006,0,0,-1.00002,7.4345657,93.92351)" stroke-width="1.59404" stroke-linecap="butt" stroke-miterlimit="10" stroke-linejoin="miter" fill="none" stroke="#000000" stroke-opacity=".5" d="M0 0V56.69362H85.04042V0ZM85.04042 56.69362"/>
</g>
</svg>
