<svg xmlns="http://www.w3.org/2000/svg" xmlns:xlink="http://www.w3.org/1999/xlink" xmlns:inkscape="http://www.inkscape.org/namespaces/inkscape" version="1.1" width="118" height="118" viewBox="0 0 118 118">
<path transform="matrix(1.00002,0,0,-1.00005,59.0602,59.0231)" d="M0 0H56.69362C56.69362 20.25227 45.88535 38.97253 28.3468 49.09824Z" fill="#4d4dff"/>
<path transform="matrix(1.00002,0,0,-1.00005,59.0602,59.0231)" stroke-width="1.59404" stroke-linecap="butt" stroke-miterlimit="10" stroke-linejoin="miter" fill="none" stroke="#000000" d="M0 0H56.69362C56.69362 20.25227 45.88535 38.97253 28.3468 49.09824Z"/>
<path transform="matrix(1.00002,0,0,-1.00005,59.0602,59.0231)" d="M0 0 28.3468 49.09824C10.80826 59.22394-10.80826 59.22394-28.3468 49.09824Z" fill="#4d4dff"/>
<path transform="matrix(1.00002,0,0,-1.00005,59.0602,59.0231)" stroke-width="1.59404" stroke-linecap="butt" stroke-miterlimit="10" stroke-linejoin="miter" fill="none" stroke="#000000" d="M0 0 28.3468 49.09824C10.80826 59.22394-10.80826 59.22394-28.3468 49.09824Z"/>
<path transform="matrix(1.00002,0,0,-1.00005,59.0602,59.0231)" d="M0 0-28.3468 49.09824C-45.88535 38.97253-56.69362 20.25227-56.69362 0Z" fill="#4d4dff"/>
<path transform="matrix(1.00002,0,0,-1.00005,59.0602,59.0231)" stroke-width="1.59404" stroke-linecap="butt" stroke-miterlimit="10" stroke-linejoin="miter" fill="none" stroke="#000000" d="M0 0-28.3468 49.09824C-45.88535 38.97253-56.69362 20.25227-56.69362 0Z"/>
<path transform="matrix(1.00002,0,0,-1.00005,59.0602,59.0231)" d="M0 0H-56.69362C-56.69362-20.25227-45.88535-38.97253-28.3468-49.09824Z" fill="#4d4dff"/>
<path transform="matrix(1.00002,0,0,-1.00005,59.0602,59.0231)" stroke-width="1.59404" stroke-linecap="butt" stroke-miterlimit="10" stroke-linejoin="miter" fill="none" stroke="#000000" d="M0 0H-56.69362C-56.69362-20.25227-45.88535-38.97253-28.3468-49.09824Z"/>
<path transform="matrix(1.00002,0,0,-1.00005,59.0602,59.0231)" d="M0 0-28.3468-49.09824C-10.80826-59.22394 10.80826-59.22394 28.3468-49.09824Z" fill="#4d4dff"/>
<path transform="matrix(1.00002,0,0,-1.00005,59.0602,59.0231)" stroke-width="1.59404" stroke-linecap="butt" stroke-miterlimit="10" stroke-linejoin="miter" fill="none" stroke="#000000" d="M0 0-28.3468-49.09824C-10.80826-59.22394 10.80826-59.22394 28.3468-49.09824Z"/>
<path transform="matrix(1.00002,0,0,-1.00005,59.0602,59.0231)" d="M0 0 28.3468-49.09824C45.88535-38.97253 56.69362-20.25227 56.69362 0Z" fill="#e5e6e5"/>
<path transform="matrix(1.00002,0,0,-1.00005,59.0602,59.0231)" stroke-width="1.59404" stroke-linecap="butt" stroke-miterlimit="10" stroke-linejoin="miter" fill="none" stroke="#000000" d="M0 0 28.3468-49.09824C45.88535-38.97253 56.69362-20.25227 56.69362 0Z"/>
</svg>
