<svg xmlns="http://www.w3.org/2000/svg" xmlns:xlink="http://www.w3.org/1999/xlink" xmlns:inkscape="http://www.inkscape.org/namespaces/inkscape" version="1.1" width="129" height="120" viewBox="0 0 129 120">
<defs>
<path id="font_1_61" d="M.69400027 .25C.69400027 .2619934 .6859894 .2669983 .6749878 .27198792L.12098694 .5329895C.10798645 .5399933 .10598755 .5399933 .102996829 .5399933 .09199524 .5399933 .08299255 .5309906 .08299255 .519989 .08299255 .5109863 .08799744 .5049896 .101989749 .49798585L.6269989 .25 .101989749 .0019989014C.08799744-.005004883 .08299255-.011001587 .08299255-.020004273 .08299255-.03100586 .09199524-.040008546 .102996829-.040008546 .10598755-.040008546 .10798645-.040008546 .12098694-.03300476L.6749878 .22799683C.6859894 .23298645 .69400027 .23799134 .69400027 .25Z"/>
</defs>
<path transform="matrix(1.00005,0,0,-1,59.201059,58.943)" d="M0 0H56.69362C56.69362 13.32733 51.99538 26.23343 43.4294 36.44217Z" fill="#4d4dff"/>
<path transform="matrix(1.00005,0,0,-1,59.201059,58.943)" stroke-width="1.59404" stroke-linecap="butt" stroke-miterlimit="10" stroke-linejoin="miter" fill="none" stroke="#000000" d="M0 0H56.69362C56.69362 13.32733 51.99538 26.23343 43.4294 36.44217Z"/>
<path transform="matrix(1.00005,0,0,-1,59.201059,58.943)" d="M0 0 43.4294 36.44217C34.86342 46.65092 22.96948 53.51878 9.84454 55.83286Z" fill="#4d4dff"/>
<path transform="matrix(1.00005,0,0,-1,59.201059,58.943)" stroke-width="1.59404" stroke-linecap="butt" stroke-miterlimit="10" stroke-linejoin="miter" fill="none" stroke="#000000" d="M0 0 43.4294 36.44217C34.86342 46.65092 22.96948 53.51878 9.84454 55.83286Z"/>
<path transform="matrix(1.00005,0,0,-1,59.201059,58.943)" d="M0 0 9.84454 55.83286C-3.28036 58.14694-16.80496 55.7619-28.3468 49.09824Z" fill="#4d4dff"/>
<path transform="matrix(1.00005,0,0,-1,59.201059,58.943)" stroke-width="1.59404" stroke-linecap="butt" stroke-miterlimit="10" stroke-linejoin="miter" fill="none" stroke="#000000" d="M0 0 9.84454 55.83286C-3.28036 58.14694-16.80496 55.7619-28.3468 49.09824Z"/>
<path transform="matrix(1.00005,0,0,-1,59.201059,58.943)" d="M0 0-28.3468 49.09824C-39.88864 42.43457-48.71674 31.9135-53.27483 19.39066Z" fill="#4d4dff"/>
<path transform="matrix(1.00005,0,0,-1,59.201059,58.943)" stroke-width="1.59404" stroke-linecap="butt" stroke-miterlimit="10" stroke-linejoin="miter" fill="none" stroke="#000000" d="M0 0-28.3468 49.09824C-39.88864 42.43457-48.71674 31.9135-53.27483 19.39066Z"/>
<path transform="matrix(1.00005,0,0,-1,59.201059,58.943)" d="M0 0-53.27483 19.39066C-57.83292 6.86783-57.83292-6.86783-53.27483-19.39066Z" fill="#e5e6e5"/>
<path transform="matrix(1.00005,0,0,-1,59.201059,58.943)" stroke-width="1.59404" stroke-linecap="butt" stroke-miterlimit="10" stroke-linejoin="miter" fill="none" stroke="#000000" d="M0 0-53.27483 19.39066C-57.83292 6.86783-57.83292-6.86783-53.27483-19.39066Z"/>
<path transform="matrix(1.00005,0,0,-1,59.201059,58.943)" d="M0 0-53.27483-19.39066C-48.71674-31.9135-39.88864-42.43457-28.3468-49.09824Z" fill="#e5e6e5"/>
<path transform="matrix(1.00005,0,0,-1,59.201059,58.943)" stroke-width="1.59404" stroke-linecap="butt" stroke-miterlimit="10" stroke-linejoin="miter" fill="none" stroke="#000000" d="M0 0-53.27483-19.39066C-48.71674-31.9135-39.88864-42.43457-28.3468-49.09824Z"/>
<path transform="matrix(1.00005,0,0,-1,59.201059,58.943)" d="M0 0-28.3468-49.09824C-16.80496-55.7619-3.28036-58.14694 9.84454-55.83286Z" fill="#e5e6e5"/>
<path transform="matrix(1.00005,0,0,-1,59.201059,58.943)" stroke-width="1.59404" stroke-linecap="butt" stroke-miterlimit="10" stroke-linejoin="miter" fill="none" stroke="#000000" d="M0 0-28.3468-49.09824C-16.80496-55.7619-3.28036-58.14694 9.84454-55.83286Z"/>
<path transform="matrix(1.00005,0,0,-1,59.201059,58.943)" d="M0 0 9.84454-55.83286C22.96948-53.51878 34.86342-46.65092 43.4294-36.44217Z" fill="#e5e6e5"/>
<path transform="matrix(1.00005,0,0,-1,59.201059,58.943)" stroke-width="1.59404" stroke-linecap="butt" stroke-miterlimit="10" stroke-linejoin="miter" fill="none" stroke="#000000" d="M0 0 9.84454-55.83286C22.96948-53.51878 34.86342-46.65092 43.4294-36.44217Z"/>
<path transform="matrix(1.00005,0,0,-1,59.201059,58.943)" d="M0 0 43.4294-36.44217C51.99538-26.23343 56.69362-13.32733 56.69362 0Z" fill="#e5e6e5"/>
<path transform="matrix(1.00005,0,0,-1,59.201059,58.943)" stroke-width="1.59404" stroke-linecap="butt" stroke-miterlimit="10" stroke-linejoin="miter" fill="none" stroke="#000000" d="M0 0 43.4294-36.44217C51.99538-26.23343 56.69362-13.32733 56.69362 0Z"/>
<use data-text="&#x003e;" xlink:href="#font_1_61" transform="matrix(10.909644,0,0,-10.9091,120.32711,117.886)"/>
</svg>
