<svg xmlns="http://www.w3.org/2000/svg" xmlns:xlink="http://www.w3.org/1999/xlink" xmlns:inkscape="http://www.inkscape.org/namespaces/inkscape" version="1.1" width="140" height="33" viewBox="0 0 140 33">
<path transform="matrix(1.00006,0,0,-1.00005,7.4345657,31.144558)" stroke-width=".3985" stroke-linecap="butt" stroke-miterlimit="10" stroke-linejoin="miter" fill="none" stroke="#fcfcfc" d="M-4.67299 0C-4.67299 .55023-5.11903 .99628-5.66927 .99628-6.2195 .99628-6.66554 .55023-6.66554 0-6.66554-.55023-6.2195-.99628-5.66927-.99628-5.11903-.99628-4.67299-.55023-4.67299 0ZM-5.66927 0"/>
<path transform="matrix(1.00006,0,0,-1.00005,7.4345657,31.144558)" stroke-width=".3985" stroke-linecap="butt" stroke-miterlimit="10" stroke-linejoin="miter" fill="none" stroke="#fcfcfc" d="M131.39176 0C131.39176 .55023 130.94571 .99628 130.39548 .99628 129.84525 .99628 129.3992 .55023 129.3992 0 129.3992-.55023 129.84525-.99628 130.39548-.99628 130.94571-.99628 131.39176-.55023 131.39176 0ZM130.39548 0"/>
<path transform="matrix(1.00006,0,0,-1.00005,7.4345657,31.144558)" stroke-width="1.59404" stroke-linecap="butt" stroke-miterlimit="10" stroke-linejoin="miter" fill="none" stroke="#000000" d="M0 0H28.3468V28.3468H0Z"/>
<path transform="matrix(1.00006,0,0,-1.00005,7.4345657,31.144558)" stroke-width=".3985" stroke-linecap="butt" stroke-dasharray=".3985,1.99255" stroke-miterlimit="10" stroke-linejoin="miter" fill="none" stroke="#000000" d="M0 7.08669H28.3468"/>
<path transform="matrix(1.00006,0,0,-1.00005,7.4345657,31.144558)" stroke-width=".3985" stroke-linecap="butt" stroke-dasharray=".3985,1.99255" stroke-miterlimit="10" stroke-linejoin="miter" fill="none" stroke="#000000" d="M0 14.17339H28.3468"/>
<path transform="matrix(1.00006,0,0,-1.00005,7.4345657,31.144558)" stroke-width=".3985" stroke-linecap="butt" stroke-dasharray=".3985,1.99255" stroke-miterlimit="10" stroke-linejoin="miter" fill="none" stroke="#000000" d="M0 21.2601H28.3468"/>
<path transform="matrix(1.00006,0,0,-1.00005,7.4345657,31.144558)" stroke-width=".3985" stroke-linecap="butt" stroke-dasharray=".3985,1.99255" stroke-miterlimit="10" stroke-linejoin="miter" fill="none" stroke="#000000" d="M9.44878 0V28.3468"/>
<path transform="matrix(1.00006,0,0,-1.00005,7.4345657,31.144558)" stroke-width=".3985" stroke-linecap="butt" stroke-dasharray=".3985,1.99255" stroke-miterlimit="10" stroke-linejoin="miter" fill="none" stroke="#000000" d="M18.89757 0V28.3468"/>
<g>
<path transform="matrix(1.00006,0,0,-1.00005,7.4345657,31.144558)" d="M0 0V7.08669H18.89757V0ZM18.89757 7.08669" fill="#4d4dff" fill-opacity=".5"/>
<path transform="matrix(1.00006,0,0,-1.00005,7.4345657,31.144558)" stroke-width="1.59404" stroke-linecap="butt" stroke-miterlimit="10" stroke-linejoin="miter" fill="none" stroke="#000000" stroke-opacity=".5" d="M0 0V7.08669H18.89757V0ZM18.89757 7.08669"/>
</g>
</svg>
