<svg xmlns="http://www.w3.org/2000/svg" xmlns:xlink="http://www.w3.org/1999/xlink" xmlns:inkscape="http://www.inkscape.org/namespaces/inkscape" version="1.1" width="140" height="38" viewBox="0 0 140 38">
<path transform="matrix(1.00006,0,0,-1.00006,7.4345657,30.145668)" stroke-width=".3985" stroke-linecap="butt" stroke-miterlimit="10" stroke-linejoin="miter" fill="none" stroke="#fcfcfc" d="M-4.67299 0C-4.67299 .55023-5.11903 .99628-5.66927 .99628-6.2195 .99628-6.66554 .55023-6.66554 0-6.66554-.55023-6.2195-.99628-5.66927-.99628-5.11903-.99628-4.67299-.55023-4.67299 0ZM-5.66927 0"/>
<path transform="matrix(1.00006,0,0,-1.00006,7.4345657,30.145668)" stroke-width=".3985" stroke-linecap="butt" stroke-miterlimit="10" stroke-linejoin="miter" fill="none" stroke="#fcfcfc" d="M131.39176-5.66927C131.39176-5.11903 130.94571-4.67299 130.39548-4.67299 129.84525-4.67299 129.3992-5.11903 129.3992-5.66927 129.3992-6.2195 129.84525-6.66554 130.39548-6.66554 130.94571-6.66554 131.39176-6.2195 131.39176-5.66927ZM130.39548-5.66927"/>
<path transform="matrix(1.00006,0,0,-1.00006,7.4345657,30.145668)" stroke-width="1.59404" stroke-linecap="butt" stroke-miterlimit="10" stroke-linejoin="miter" fill="none" stroke="#000000" d="M0 0H28.3468V28.3468H0Z"/>
<path transform="matrix(1.00006,0,0,-1.00006,7.4345657,30.145668)" stroke-width=".3985" stroke-linecap="butt" stroke-dasharray=".3985,1.99255" stroke-miterlimit="10" stroke-linejoin="miter" fill="none" stroke="#000000" d="M0 7.08669H28.3468"/>
<path transform="matrix(1.00006,0,0,-1.00006,7.4345657,30.145668)" stroke-width=".3985" stroke-linecap="butt" stroke-dasharray=".3985,1.99255" stroke-miterlimit="10" stroke-linejoin="miter" fill="none" stroke="#000000" d="M0 14.17339H28.3468"/>
<path transform="matrix(1.00006,0,0,-1.00006,7.4345657,30.145668)" stroke-width=".3985" stroke-linecap="butt" stroke-dasharray=".3985,1.99255" stroke-miterlimit="10" stroke-linejoin="miter" fill="none" stroke="#000000" d="M0 21.2601H28.3468"/>
<path transform="matrix(1.00006,0,0,-1.00006,7.4345657,30.145668)" stroke-width=".3985" stroke-linecap="butt" stroke-dasharray=".3985,1.99255" stroke-miterlimit="10" stroke-linejoin="miter" fill="none" stroke="#000000" d="M9.44878 0V28.3468"/>
<path transform="matrix(1.00006,0,0,-1.00006,7.4345657,30.145668)" stroke-width=".3985" stroke-linecap="butt" stroke-dasharray=".3985,1.99255" stroke-miterlimit="10" stroke-linejoin="miter" fill="none" stroke="#000000" d="M18.89757 0V28.3468"/>
<path transform="matrix(1.00006,0,0,-1.00006,7.4345657,30.145668)" stroke-width="1.59404" stroke-linecap="butt" stroke-miterlimit="10" stroke-linejoin="miter" fill="none" stroke="#ff0000" d="M-2.83484 7.08669H2.83484"/>
<path transform="matrix(1.00006,0,0,-1.00006,7.4345657,30.145668)" stroke-width="1.59404" stroke-linecap="butt" stroke-miterlimit="10" stroke-linejoin="miter" fill="none" stroke="#ff0000" d="M-2.83484 14.17339H2.83484"/>
<path transform="matrix(1.00006,0,0,-1.00006,7.4345657,30.145668)" stroke-width="1.59404" stroke-linecap="butt" stroke-miterlimit="10" stroke-linejoin="miter" fill="none" stroke="#ff0000" d="M-2.83484 21.2601H2.83484"/>
<path transform="matrix(1.00006,0,0,-1.00006,7.4345657,30.145668)" stroke-width="1.59404" stroke-linecap="butt" stroke-miterlimit="10" stroke-linejoin="miter" fill="none" stroke="#ff0000" d="M9.44878-2.83484V2.83484"/>
<path transform="matrix(1.00006,0,0,-1.00006,7.4345657,30.145668)" stroke-width="1.59404" stroke-linecap="butt" stroke-miterlimit="10" stroke-linejoin="miter" fill="none" stroke="#ff0000" d="M18.89757-2.83484V2.83484"/>
<g>
<path transform="matrix(1.00006,0,0,-1.00006,7.4345657,30.145668)" d="M0 0V7.08669H18.89757V0ZM18.89757 7.08669" fill="#4d4dff" fill-opacity=".5"/>
<path transform="matrix(1.00006,0,0,-1.00006,7.4345657,30.145668)" stroke-width="1.59404" stroke-linecap="butt" stroke-miterlimit="10" stroke-linejoin="miter" fill="none" stroke="#000000" stroke-opacity=".5" d="M0 0V7.08669H18.89757V0ZM18.89757 7.08669"/>
</g>
</svg>
