<svg xmlns="http://www.w3.org/2000/svg" xmlns:xlink="http://www.w3.org/1999/xlink" xmlns:inkscape="http://www.inkscape.org/namespaces/inkscape" version="1.1" width="147" height="100" viewBox="0 0 147 100">
<defs>
<path id="font_1_1" d="M.33399964 .30233766C.33999635 .32835389 .36299134 .42037965 .43299867 .42037965 .43798829 .42037965 .46199037 .42037965 .48298646 .40734864 .45498658 .402359 .43499757 .37734986 .43499757 .35334779 .43499757 .33735658 .44599916 .31835938 .47299195 .31835938 .49499513 .31835938 .5269928 .3363495 .5269928 .37635804 .5269928 .42837525 .46798707 .4423828 .43399049 .4423828 .37599183 .4423828 .34098817 .38935853 .32899476 .36634828 .3039856 .43237306 .25 .4423828 .22099304 .4423828 .116989139 .4423828 .05999756 .3133545 .05999756 .28834535 .05999756 .27833558 .069992069 .27833558 .07199097 .27833558 .07998657 .27833558 .08299255 .28033448 .084991458 .28933717 .11898804 .39535523 .18499756 .42037965 .21899414 .42037965 .23799134 .42037965 .272995 .4113617 .272995 .35334779 .272995 .32235719 .2559967 .25532533 .21899414 .11528015 .20298767 .053268434 .16799927 .011245728 .12399292 .011245728 .117996219 .011245728 .09498596 .011245728 .07398987 .024276734 .09899902 .029266358 .12098694 .05027771 .12098694 .07827759 .12098694 .105270389 .09899902 .11328125 .083999637 .11328125 .053985597 .11328125 .0289917 .08728027 .0289917 .055267335 .0289917 .009246826 .07899475-.0107421879 .12298584-.0107421879 .18899536-.0107421879 .22499085 .059280397 .22799683 .0652771 .23999024 .028274537 .27598573-.0107421879 .33599855-.0107421879 .43899537-.0107421879 .49598695 .118270877 .49598695 .14328003 .49598695 .1532898 .4869995 .1532898 .48399354 .1532898 .47499085 .1532898 .47299195 .14929199 .47099305 .14228821 .43798829 .03527832 .36999513 .011245728 .33799745 .011245728 .29899598 .011245728 .2829895 .043273927 .2829895 .07727051 .2829895 .09927368 .2889862 .121276859 .2999878 .16529846L.33399964 .30233766Z"/>
<path id="font_2_1" d="M.28199769 .20405579C.2979889 .21907044 .33999635 .2520752 .35598756 .26608277 .41799928 .32312013 .47698976 .3781433 .47698976 .46917726 .47698976 .588089 .3769989 .66503909 .2519989 .66503909 .13198853 .66503909 .052993776 .57411196 .052993776 .48516847 .052993776 .4361725 .09199524 .4291687 .10598755 .4291687 .1269989 .4291687 .1579895 .4441681 .1579895 .48217774 .1579895 .5341797 .10798645 .5341797 .09599304 .5341797 .125 .6070709 .19198609 .6320343 .24099732 .6320343 .33399964 .6320343 .38198854 .55314639 .38198854 .46917726 .38198854 .36514283 .30899049 .28910829 .19099427 .16804505L.06498718 .037994386C.052993776 .026992798 .052993776 .024993897 .052993776 0H.44799806L.47698976 .17904663H.44599916C.44299317 .1590271 .43499757 .10900879 .4229889 .08999634 .4169922 .08198547 .34098817 .08198547 .32499696 .08198547H.14698792L.28199769 .20405579Z"/>
<path id="font_3_1" d="M.2899933 .35191346C.37199403 .37893678 .42999269 .4490509 .42999269 .52809146 .42999269 .6100464 .34199525 .6660156 .24598694 .6660156 .14498902 .6660156 .068984989 .60606387 .068984989 .53009036 .068984989 .49710084 .09098816 .47808839 .11999512 .47808839 .15098572 .47808839 .17098999 .50009158 .17098999 .5290985 .17098999 .57910159 .12399292 .57910159 .10899353 .57910159 .13999939 .62802127 .20599365 .64100649 .24198914 .64100649 .2829895 .64100649 .33799745 .6190338 .33799745 .5290985 .33799745 .51708987 .33599855 .45906068 .30999757 .4149933 .27999879 .36691285 .24598694 .36390687 .22099304 .36291505 .21299744 .36190797 .18899536 .35990907 .18199158 .35990907 .17399597 .35890199 .16699219 .35791017 .16699219 .3479004 .16699219 .33691407 .17399597 .33691407 .19099427 .33691407H.23498535C.31698609 .33691407 .35398866 .2686615 .35398866 .17037964 .35398866 .034469606 .2849884 .0055389406 .24099732 .0055389406 .19799805 .0055389406 .12298584 .022491456 .08799744 .08137512 .12298584 .07637024 .1539917 .09837341 .1539917 .1363678 .1539917 .17237854 .1269989 .19238281 .09799194 .19238281 .07398987 .19238281 .041992189 .17837525 .041992189 .1343689 .041992189 .043441774 .1349945-.022460938 .24398804-.022460938 .3659973-.022460938 .45700074 .06838989 .45700074 .17037964 .45700074 .252594 .3939972 .33088685 .2899933 .35191346Z"/>
<path id="font_3_2" d="M.13198853 .327713V.35173036C.13198853 .6047821 .2559967 .64100649 .30699159 .64100649 .33099366 .64100649 .37298585 .634964 .394989 .6007538 .37998963 .6007538 .33999635 .6007538 .33999635 .5557556 .33999635 .524765 .3639984 .5097656 .38598634 .5097656 .4019928 .5097656 .43199159 .51875308 .43199159 .5577545 .43199159 .6178589 .3880005 .6660156 .30499269 .6660156 .1769867 .6660156 .041992189 .5367584 .041992189 .31570436 .041992189 .048553468 .1579895-.022460938 .25099183-.022460938 .3619995-.022460938 .45700074 .07156372 .45700074 .2036438 .45700074 .33070375 .36799623 .4267578 .25698854 .4267578 .18899536 .4267578 .1519928 .37573243 .13198853 .327713M.25099183 .0055389406C.18798828 .0055389406 .1579895 .06556702 .1519928 .080566409 .13398743 .127594 .13398743 .2076416 .13398743 .22564698 .13398743 .30369569 .1659851 .40374757 .2559967 .40374757 .27198792 .40374757 .31799317 .40374757 .34899903 .34172059 .36698915 .30470277 .36698915 .2536621 .36698915 .20463562 .36698915 .15661621 .36698915 .10658264 .34999085 .0705719 .31999208 .010528564 .27398683 .0055389406 .25099183 .0055389406Z"/>
<path id="font_4_1" d="M.6589966 .23046875C.6759949 .23046875 .69400027 .23046875 .69400027 .25045777 .69400027 .27046205 .6759949 .27046205 .6589966 .27046205H.117996219C.100997928 .27046205 .08299255 .27046205 .08299255 .25045777 .08299255 .23046875 .100997928 .23046875 .117996219 .23046875H.6589966Z"/>
<path id="font_5_61" d="M.69400027 .25C.69400027 .2619934 .6859894 .2669983 .6749878 .27198792L.12098694 .5329895C.10798645 .5399933 .10598755 .5399933 .102996829 .5399933 .09199524 .5399933 .08299255 .5309906 .08299255 .519989 .08299255 .5109863 .08799744 .5049896 .101989749 .49798585L.6269989 .25 .101989749 .0019989014C.08799744-.005004883 .08299255-.011001587 .08299255-.020004273 .08299255-.03100586 .09199524-.040008546 .102996829-.040008546 .10598755-.040008546 .10798645-.040008546 .12098694-.03300476L.6749878 .22799683C.6859894 .23298645 .69400027 .23799134 .69400027 .25Z"/>
</defs>
<path transform="matrix(1.00003,0,0,-1,21.348822,97.732)" stroke-width=".3985" stroke-linecap="butt" stroke-miterlimit="10" stroke-linejoin="miter" fill="none" stroke="#000000" d="M0 0V85.04042H113.38724V0ZM113.38724 85.04042"/>
<path transform="matrix(1.00003,0,0,-1,21.348822,97.732)" stroke-width=".3985" stroke-linecap="butt" stroke-miterlimit="10" stroke-linejoin="miter" fill="none" stroke="#000000" d="M56.69362 0V85.04042"/>
<path transform="matrix(1.00003,0,0,-1,21.348822,97.732)" stroke-width=".3985" stroke-linecap="butt" stroke-miterlimit="10" stroke-linejoin="miter" fill="none" stroke="#000000" d="M0 42.5202H113.38724"/>
<use data-text="x" xlink:href="#font_1_1" transform="matrix(10.909428,0,0,-10.9091,44.21251,38.499)"/>
<use data-text="2" xlink:href="#font_2_1" transform="matrix(7.9703395,0,0,-7.9701,50.447694,34.54)"/>
<use data-text="3" xlink:href="#font_3_1" transform="matrix(10.909428,0,0,-10.9091,100.93721,79.987)"/>
<use data-text="6" xlink:href="#font_3_2" transform="matrix(10.909428,0,0,-10.9091,106.39192,79.987)"/>
<use data-text="&#x2212;" xlink:href="#font_4_1" transform="matrix(10.909428,0,0,-10.9091,96.30408,37.012)"/>
<use data-text="6" xlink:href="#font_3_2" transform="matrix(10.909428,0,0,-10.9091,104.78933,37.012)"/>
<use data-text="x" xlink:href="#font_1_1" transform="matrix(10.909428,0,0,-10.9091,110.24449,37.012)"/>
<use data-text="&#x2212;" xlink:href="#font_4_1" transform="matrix(10.909428,0,0,-10.9091,39.60937,79.533008)"/>
<use data-text="6" xlink:href="#font_3_2" transform="matrix(10.909428,0,0,-10.9091,48.094629,79.533008)"/>
<use data-text="x" xlink:href="#font_1_1" transform="matrix(10.909428,0,0,-10.9091,53.54979,79.533008)"/>
<use data-text="x" xlink:href="#font_1_1" transform="matrix(10.909428,0,0,-10.9091,4.0573027,36.300004)"/>
<use data-text="x" xlink:href="#font_1_1" transform="matrix(10.909428,0,0,-10.9091,46.57858,7.953003)"/>
<use data-text="&#x2212;" xlink:href="#font_4_1" transform="matrix(10.909428,0,0,-10.9091,.20518685,79.533008)"/>
<use data-text="6" xlink:href="#font_3_2" transform="matrix(10.909428,0,0,-10.9091,8.690441,79.533008)"/>
<use data-text="&#x2212;" xlink:href="#font_4_1" transform="matrix(10.909428,0,0,-10.9091,99.422168,8.666)"/>
<use data-text="6" xlink:href="#font_3_2" transform="matrix(10.909428,0,0,-10.9091,107.90742,8.666)"/>
<use data-text="&#x003e;" xlink:href="#font_5_61" transform="matrix(10.909428,0,0,-10.9091,138.57035,97.931)"/>
</svg>
