<svg xmlns="http://www.w3.org/2000/svg" xmlns:xlink="http://www.w3.org/1999/xlink" xmlns:inkscape="http://www.inkscape.org/namespaces/inkscape" version="1.1" width="64" height="60" viewBox="0 0 64 60">
<defs>
<path id="font_1_2" d="M.2939911 .64004519C.2939911 .66400149 .2939911 .6660156 .2709961 .6660156 .20899964 .60227969 .12098694 .60227969 .08898926 .60227969V.57128909C.10899353 .57128909 .16799927 .57128909 .21998596 .5972748V.07902527C.21998596 .042999269 .21699524 .0309906 .1269989 .0309906H.09498596V0C.12998963 .0029907227 .21699524 .0029907227 .25698854 .0029907227 .29699708 .0029907227 .38398744 .0029907227 .4189911 0V.0309906H.3869934C.29699708 .0309906 .2939911 .041992189 .2939911 .07902527V.64004519Z"/>
<path id="font_1_1" d="M.45999146 .31976319C.45999146 .39982606 .45498658 .47988893 .41999818 .5539398 .37399293 .65000918 .2919922 .6660156 .25 .6660156 .18998719 .6660156 .116989139 .64001467 .07598877 .54693606 .04399109 .47789 .038986207 .39982606 .038986207 .31976319 .038986207 .24472046 .042999269 .15464783 .083999637 .07859802 .1269989-.0024719239 .19999695-.022460938 .24899292-.022460938 .30299378-.022460938 .3789978-.0014648438 .4229889 .09359741 .45498658 .16265869 .45999146 .2407074 .45999146 .31976319M.24899292-.00047302247C.20999146-.00047302247 .15098572 .024551392 .1329956 .12062073 .12199402 .18066406 .12199402 .2727356 .12199402 .3317871 .12199402 .39582826 .12199402 .46188355 .12998963 .5159149 .14898682 .63500979 .22399903 .64401248 .24899292 .64401248 .28199769 .64401248 .34799195 .6259918 .36698915 .52693179 .3769989 .47088624 .3769989 .39482118 .3769989 .3317871 .3769989 .25672914 .3769989 .18867493 .3659973 .12461853 .35099793 .029556275 .2939911-.00047302247 .24899292-.00047302247Z"/>
<path id="font_2_1" d="M.6589966 .23046875C.6759949 .23046875 .69400027 .23046875 .69400027 .25045777 .69400027 .27046205 .6759949 .27046205 .6589966 .27046205H.117996219C.100997928 .27046205 .08299255 .27046205 .08299255 .25045777 .08299255 .23046875 .100997928 .23046875 .117996219 .23046875H.6589966Z"/>
</defs>
<path transform="matrix(1.00008,0,0,-1.00002,30.339749,29.828238)" stroke-width=".3985" stroke-linecap="butt" stroke-miterlimit="10" stroke-linejoin="miter" fill="none" stroke="#000000" d="M-28.3468-28.3468 28.3468 28.3468"/>
<path transform="matrix(1.00008,0,0,-1.00002,30.339749,29.828238)" stroke-width=".3985" stroke-linecap="butt" stroke-miterlimit="10" stroke-linejoin="miter" fill="none" stroke="#000000" d="M-28.3468 28.3468 28.3468-28.3468"/>
<use data-text="1" xlink:href="#font_1_2" transform="matrix(10.909972,0,0,-10.909318,22.157094,10.6658539)"/>
<use data-text="0" xlink:href="#font_1_1" transform="matrix(10.909972,0,0,-10.909318,27.612076,10.6658539)"/>
<use data-text="0" xlink:href="#font_1_1" transform="matrix(10.909972,0,0,-10.909318,33.067068,10.6658539)"/>
<use data-text="0" xlink:href="#font_1_1" transform="matrix(10.909972,0,0,-10.909318,27.61253,56.021768)"/>
<use data-text="1" xlink:href="#font_1_2" transform="matrix(10.909972,0,0,-10.909318,2.2054978,33.343309)"/>
<use data-text="0" xlink:href="#font_1_1" transform="matrix(10.909972,0,0,-10.909318,7.6604807,33.343309)"/>
<use data-text="&#x2212;" xlink:href="#font_2_1" transform="matrix(10.909972,0,0,-10.909318,43.320787,32.889299)"/>
<use data-text="1" xlink:href="#font_1_2" transform="matrix(10.909972,0,0,-10.909318,51.806467,32.889299)"/>
<use data-text="0" xlink:href="#font_1_1" transform="matrix(10.909972,0,0,-10.909318,57.261449,32.889299)"/>
</svg>
